<?xml version="1.0" encoding="UTF-8"?>
<svg xmlns="http://www.w3.org/2000/svg" viewBox="0 0 800 700" width="800" height="700">
  <title>Roaster v1 Assembly Cross-Section (Side View)</title>
  <style>
    text { font-family: monospace; font-size: 11px; }
    .dim { font-size: 10px; fill: #666; }
    .label { font-size: 11px; fill: #333; font-weight: bold; }
    .note { font-size: 9px; fill: #888; }
    .component { stroke: #333; stroke-width: 1.5; }
    .dimension-line { stroke: #999; stroke-width: 0.75; stroke-dasharray: 4,2; }
    .centerline { stroke: #ccc; stroke-width: 0.5; stroke-dasharray: 8,4,2,4; }
    .airflow { stroke: #39f; stroke-width: 1.5; fill: none; marker-end: url(#arrowBlue); }
    .hot-airflow { stroke: #f63; stroke-width: 1.5; fill: none; marker-end: url(#arrowRed); }
  </style>

  <defs>
    <marker id="arrowBlue" markerWidth="8" markerHeight="6" refX="8" refY="3" orient="auto">
      <path d="M0,0 L8,3 L0,6 Z" fill="#39f"/>
    </marker>
    <marker id="arrowRed" markerWidth="8" markerHeight="6" refX="8" refY="3" orient="auto">
      <path d="M0,0 L8,3 L0,6 Z" fill="#f63"/>
    </marker>
    <marker id="dimArrow" markerWidth="6" markerHeight="4" refX="6" refY="2" orient="auto">
      <path d="M0,0 L6,2 L0,4 Z" fill="#999"/>
    </marker>
  </defs>

  <!-- Background -->
  <rect width="800" height="700" fill="#fafafa"/>

  <!-- Title -->
  <text x="400" y="25" text-anchor="middle" style="font-size:14px; font-weight:bold; fill:#333;">
    Roaster v1 Assembly — Side Cross-Section (not to scale)
  </text>

  <!-- ============================================= -->
  <!-- BASEPLATE -->
  <!-- ============================================= -->
  <rect x="100" y="580" width="500" height="15" fill="#D2B48C" class="component"/>
  <text x="350" y="600" text-anchor="middle" class="label">Baseplate (16" x 10" plywood/steel)</text>

  <!-- Standoffs -->
  <rect x="250" y="560" width="8" height="20" fill="#C0C0C0" class="component"/>
  <rect x="430" y="560" width="8" height="20" fill="#C0C0C0" class="component"/>
  <text x="220" y="555" class="note">Standoffs (1" SS spacers)</text>

  <!-- ============================================= -->
  <!-- PLENUM PAN -->
  <!-- ============================================= -->
  <!-- Bottom wall -->
  <rect x="230" y="550" width="230" height="3" fill="#B0C4DE" class="component"/>
  <!-- Left wall -->
  <rect x="230" y="460" width="3" height="93" fill="#B0C4DE" class="component"/>
  <!-- Right wall -->
  <rect x="457" y="460" width="3" height="93" fill="#B0C4DE" class="component"/>
  <!-- Rim/flange (left) -->
  <rect x="220" y="457" width="16" height="5" fill="#B0C4DE" class="component"/>
  <!-- Rim/flange (right) -->
  <rect x="454" y="457" width="16" height="5" fill="#B0C4DE" class="component"/>

  <text x="345" y="515" text-anchor="middle" class="label">Plenum</text>
  <text x="345" y="528" text-anchor="middle" class="note">(1/6 SS steam table pan, 4" deep)</text>

  <!-- Side-entry hole indicator -->
  <rect x="224" y="495" width="10" height="30" fill="#fafafa" stroke="#B0C4DE" stroke-width="1"/>

  <!-- ============================================= -->
  <!-- DEFLECTOR RAMP BAFFLE -->
  <!-- ============================================= -->
  <line x1="420" y1="490" x2="395" y2="540" stroke="#FF8C00" stroke-width="3"/>
  <text x="430" y="530" class="label" fill="#FF8C00">Baffle</text>
  <text x="430" y="542" class="note">(45 deg deflector)</text>

  <!-- ============================================= -->
  <!-- CLAMPING RING + GASKET -->
  <!-- ============================================= -->
  <!-- Gasket -->
  <rect x="225" y="453" width="240" height="4" fill="#FFA07A" class="component" stroke="#999"/>
  <!-- Ring (left side) -->
  <rect x="225" y="447" width="90" height="6" fill="#808080" class="component"/>
  <!-- Ring (right side) -->
  <rect x="375" y="447" width="90" height="6" fill="#808080" class="component"/>

  <text x="490" y="452" class="label">Clamping Ring</text>
  <text x="490" y="464" class="note">(bolted to pan rim)</text>
  <text x="490" y="476" class="note">+ gasket (fiberglass)</text>

  <!-- Bolt indicators -->
  <circle cx="228" cy="450" r="3" fill="#555"/>
  <circle cx="462" cy="450" r="3" fill="#555"/>

  <!-- ============================================= -->
  <!-- DISTRIBUTOR PLATE -->
  <!-- ============================================= -->
  <rect x="315" y="443" width="60" height="4" fill="#DAA520" class="component"/>
  <text x="280" y="438" class="label">Distributor Plate</text>
  <text x="280" y="428" class="note">(perforated SS disc)</text>

  <!-- ============================================= -->
  <!-- ROAST CHAMBER -->
  <!-- ============================================= -->
  <!-- Left wall -->
  <rect x="315" y="230" width="3" height="213" fill="#ADD8E6" class="component"/>
  <!-- Right wall -->
  <rect x="372" y="230" width="3" height="213" fill="#ADD8E6" class="component"/>

  <text x="345" y="340" text-anchor="middle" class="label">Chamber</text>
  <text x="345" y="355" text-anchor="middle" class="note">(2.5" OD SS tube)</text>
  <text x="345" y="370" text-anchor="middle" class="note">12" tall</text>

  <!-- Bean bed indicator -->
  <rect x="318" y="400" width="54" height="35" fill="#8B4513" fill-opacity="0.3" stroke="#8B4513" stroke-width="1" stroke-dasharray="3,2"/>
  <text x="345" y="422" text-anchor="middle" class="note" fill="#8B4513">Bean bed</text>

  <!-- TC2 indicator -->
  <line x1="375" y1="415" x2="400" y2="415" stroke="#f00" stroke-width="1"/>
  <circle cx="375" cy="415" r="2" fill="#f00"/>
  <text x="405" y="418" class="note" fill="#f00">TC2 (bean)</text>

  <!-- TC1 indicator (process air, post-heater) -->
  <line x1="233" y1="510" x2="210" y2="510" stroke="#f00" stroke-width="1"/>
  <circle cx="233" cy="510" r="2" fill="#f00"/>
  <text x="145" y="513" class="note" fill="#f00">TC1 (process air)</text>

  <!-- ============================================= -->
  <!-- CHAFF EXPANSION CHAMBER -->
  <!-- ============================================= -->
  <!-- Left wall -->
  <rect x="295" y="150" width="3" height="80" fill="#DDA0DD" class="component"/>
  <!-- Right wall -->
  <rect x="392" y="150" width="3" height="80" fill="#DDA0DD" class="component"/>
  <!-- Top cap -->
  <rect x="295" y="147" width="100" height="3" fill="#DDA0DD" class="component"/>

  <!-- Mesh screen -->
  <line x1="298" y1="160" x2="392" y2="160" stroke="#888" stroke-width="2" stroke-dasharray="3,2"/>
  <text x="400" y="163" class="note">30x30 SS mesh</text>

  <text x="345" y="200" text-anchor="middle" class="label">Chaff Collector</text>
  <text x="345" y="213" text-anchor="middle" class="note">(4" OD x 5" expansion chamber)</text>

  <!-- TC3 indicator (exhaust) -->
  <line x1="395" y1="175" x2="420" y2="175" stroke="#f00" stroke-width="1"/>
  <circle cx="395" cy="175" r="2" fill="#f00"/>
  <text x="425" y="178" class="note" fill="#f00">TC3 (exhaust)</text>

  <!-- Exhaust arrow -->
  <path d="M345,147 L345,120" class="hot-airflow"/>
  <text x="355" y="118" class="note" fill="#f63">Exhaust out</text>

  <!-- ============================================= -->
  <!-- HEATER CAN -->
  <!-- ============================================= -->
  <!-- Top wall -->
  <rect x="110" y="490" width="120" height="3" fill="#FF6347" class="component"/>
  <!-- Bottom wall -->
  <rect x="110" y="520" width="120" height="3" fill="#FF6347" class="component"/>

  <!-- Nichrome element (zigzag inside) -->
  <polyline points="135,497 140,518 150,497 155,518 165,497 170,518 180,497 185,518 195,497 200,518 210,497"
            stroke="#FF4500" stroke-width="1.5" fill="none"/>

  <text x="165" y="488" text-anchor="middle" class="label" fill="#FF6347">Heater Can</text>
  <text x="165" y="540" text-anchor="middle" class="note">(Warrior 1500W element)</text>

  <!-- Hose clamp indicator -->
  <rect x="225" y="488" width="5" height="37" fill="none" stroke="#555" stroke-width="2"/>
  <text x="200" y="482" class="note">Hose clamp</text>
  <text x="200" y="472" class="note">(non-permanent)</text>

  <!-- ============================================= -->
  <!-- BLOWER -->
  <!-- ============================================= -->
  <ellipse cx="80" cy="506" rx="30" ry="35" fill="#6495ED" fill-opacity="0.5" class="component"/>
  <text x="80" y="509" text-anchor="middle" class="label" fill="#333">Blower</text>
  <text x="80" y="555" text-anchor="middle" class="note">(salvaged AC</text>
  <text x="80" y="565" text-anchor="middle" class="note">vacuum motor)</text>

  <!-- ============================================= -->
  <!-- AIRFLOW ARROWS -->
  <!-- ============================================= -->
  <!-- Ambient into blower -->
  <path d="M30,506 L48,506" class="airflow"/>
  <text x="15" y="500" class="note" fill="#39f">Ambient</text>

  <!-- Blower to heater can -->
  <path d="M110,506 L130,506" class="airflow"/>

  <!-- Through heater can (becomes hot) -->
  <path d="M215,506 L228,506" class="hot-airflow"/>

  <!-- Inside plenum (downward from baffle) -->
  <path d="M345,500 L345,540" class="hot-airflow"/>

  <!-- Up through distributor plate -->
  <path d="M345,540 L345,550" class="hot-airflow" stroke-dasharray="3,3"/>
  <path d="M340,447 L340,420" class="hot-airflow"/>
  <path d="M350,447 L350,420" class="hot-airflow"/>

  <!-- Up through chamber -->
  <path d="M340,400 L340,240" class="hot-airflow"/>
  <path d="M350,400 L350,240" class="hot-airflow"/>

  <!-- Into chaff collector -->
  <path d="M340,230 L340,165" class="hot-airflow"/>
  <path d="M350,230 L350,165" class="hot-airflow"/>

  <!-- ============================================= -->
  <!-- ELECTRONICS ZONE (right side of base) -->
  <!-- ============================================= -->
  <rect x="500" y="545" width="80" height="30" fill="#98FB98" fill-opacity="0.5" stroke="#3c3" stroke-width="1"/>
  <text x="540" y="563" text-anchor="middle" class="note" fill="#3c3">ESP32</text>

  <rect x="500" y="510" width="60" height="30" fill="#FFB6C1" fill-opacity="0.5" stroke="#c33" stroke-width="1"/>
  <text x="530" y="528" text-anchor="middle" class="note" fill="#c33">SSR</text>

  <rect x="565" y="510" width="40" height="30" fill="#B0E0E6" fill-opacity="0.5" stroke="#33c" stroke-width="1"/>
  <text x="585" y="528" text-anchor="middle" class="note" fill="#33c">TRIAC</text>
  <text x="585" y="538" text-anchor="middle" class="note" fill="#33c">+ CT</text>

  <text x="540" y="505" text-anchor="middle" class="label">Electronics Zone</text>
  <text x="540" y="495" text-anchor="middle" class="note">(cool side of base)</text>

  <!-- ============================================= -->
  <!-- DIMENSION LINES -->
  <!-- ============================================= -->

  <!-- Total height -->
  <line x1="680" y1="120" x2="680" y2="595" class="dimension-line"/>
  <line x1="670" y1="147" x2="690" y2="147"/>
  <line x1="670" y1="595" x2="690" y2="595"/>
  <text x="695" y="380" class="dim" transform="rotate(90,695,380)">~21" total height</text>

  <!-- Chamber height -->
  <line x1="650" y1="230" x2="650" y2="443" class="dimension-line"/>
  <line x1="640" y1="230" x2="660" y2="230"/>
  <line x1="640" y1="443" x2="660" y2="443"/>
  <text x="655" y="340" class="dim" transform="rotate(90,655,340)">12" chamber</text>

  <!-- Plenum depth -->
  <line x1="650" y1="460" x2="650" y2="553" class="dimension-line"/>
  <line x1="640" y1="460" x2="660" y2="460"/>
  <line x1="640" y1="553" x2="660" y2="553"/>
  <text x="655" y="510" class="dim" transform="rotate(90,655,510)">4" plenum</text>

  <!-- Base width -->
  <line x1="100" y1="630" x2="600" y2="630" class="dimension-line"/>
  <line x1="100" y1="620" x2="100" y2="640"/>
  <line x1="600" y1="620" x2="600" y2="640"/>
  <text x="350" y="645" text-anchor="middle" class="dim">16" baseplate</text>

  <!-- Legend -->
  <rect x="20" y="640" width="200" height="55" fill="white" stroke="#ccc" stroke-width="1"/>
  <text x="30" y="655" class="note" font-weight="bold">Legend:</text>
  <line x1="30" y1="668" x2="55" y2="668" stroke="#39f" stroke-width="2"/>
  <text x="60" y="672" class="note">Cool airflow</text>
  <line x1="120" y1="668" x2="145" y2="668" stroke="#f63" stroke-width="2"/>
  <text x="150" y="672" class="note">Hot airflow</text>
  <circle cx="40" cy="685" r="3" fill="#f00"/>
  <text x="50" y="688" class="note">Thermocouple</text>
</svg>
