<svg xmlns="http://www.w3.org/2000/svg" xmlns:xlink="http://www.w3.org/1999/xlink" xml:lang="en" height="281.54909476333796pt" width="649.0219999999999pt" viewBox="-47.86 -51.049094763337905 649.0219999999999 281.54909476333796"><path d="M 126.71 -20.85 a 9.0 13.5 -0.0 0 1 4.63000000000001 13.430000000000001" style="stroke:#c8262a;fill:none;stroke-width:2.0;stroke-dasharray:-;" /><path d="M 130.52122247122134 -0.47177783584408073 L 128.65691829100678 -7.739127416236815 L 134.01999111186967 -7.108691124355219 Z" style="stroke:#c8262a;fill:#c8262a;stroke-linecap:butt;stroke-linejoin:miter;" /><path d="M 126.71 51.15 a 9.0 13.5 -0.0 0 1 4.63000000000001 13.43" style="stroke:#404040;fill:none;stroke-width:2.0;stroke-dasharray:-;" /><path d="M 130.52122247122134 71.52822216415592 L 128.65691829100678 64.26087258376317 L 134.01999111186967 64.89130887564477 Z" style="stroke:#404040;fill:#404040;stroke-linecap:butt;stroke-linejoin:miter;" /><path d="M 0.0,-0.0 L 36.0,-0.0 L 72.0,-0.0" style="stroke:#c8262a;fill:none;stroke-width:2.0;stroke-dasharray:-;stroke-linecap:round;stroke-linejoin:round;" /><path d="M 72.0,-0.0 L 108.0,-0.0 M 116.64000000000001,-3.6 L 136.79999999999998,-16.2 M 144.0,-0.0 L 180.0,-0.0" style="stroke:#c8262a;fill:none;stroke-width:2.0;stroke-dasharray:-;stroke-linecap:round;stroke-linejoin:round;" /><path d="M 180.0,-0.0 L 216.0,-0.0 L 252.0,-0.0" style="stroke:#c8262a;fill:none;stroke-width:2.0;stroke-dasharray:-;stroke-linecap:round;stroke-linejoin:round;" /><path d="M 252.0,-0.0 L 288.0,-0.0 L 288.0,-9.0 L 324.0,-9.0 L 324.0,9.0 L 288.0,9.0 L 288.0,-0.0 M 324.0,-0.0 L 360.0,-0.0" style="stroke:#c8262a;fill:none;stroke-width:2.0;stroke-dasharray:-;stroke-linecap:round;stroke-linejoin:round;" /><path d="M 288.0,-0.0 L 324.0,-0.0" style="stroke:#c8262a;fill:none;stroke-width:2.0;stroke-dasharray:-;stroke-linecap:round;stroke-linejoin:round;" /><path d="M 360.0,-0.0 L 432.0,-0.0 L 504.0,-0.0" style="stroke:#c8262a;fill:none;stroke-width:2.0;stroke-dasharray:-;stroke-linecap:round;stroke-linejoin:round;" /><path d="M 0.0,72.0 L 36.0,72.0 L 72.0,72.0" style="stroke:#404040;fill:none;stroke-width:2.0;stroke-dasharray:-;stroke-linecap:round;stroke-linejoin:round;" /><path d="M 72.0,72.0 L 108.0,72.0 M 116.64000000000001,68.39999999999999 L 136.79999999999998,55.800000000000004 M 144.0,72.0 L 180.0,72.0" style="stroke:#404040;fill:none;stroke-width:2.0;stroke-dasharray:-;stroke-linecap:round;stroke-linejoin:round;" /><path d="M 180.0,72.0 L 342.0,72.0 L 504.0,72.0" style="stroke:#404040;fill:none;stroke-width:2.0;stroke-dasharray:-;stroke-linecap:round;stroke-linejoin:round;" /><path d="M 126.0,-0.0 L 126.0,36.0 L 126.0,72.0" style="stroke:#888888;fill:none;stroke-width:2.0;stroke-dasharray:2,3.3;stroke-linecap:round;stroke-linejoin:round;" /><path d="M 0.0,144.0 L 252.0,144.0 L 504.0,144.0" style="stroke:#1f9d3a;fill:none;stroke-width:2.0;stroke-dasharray:-;stroke-linecap:round;stroke-linejoin:round;" /><circle cx="112.32000000000001" cy="-0.0" r="4.32" style="stroke:#c8262a;fill:white;stroke-width:2.0;stroke-dasharray:-;" /><circle cx="139.68" cy="-0.0" r="4.32" style="stroke:#c8262a;fill:white;stroke-width:2.0;stroke-dasharray:-;" /><text x="126.0" y="-46.44909476333791" dominant-baseline="ideographic" fill="#c8262a" font-size="11" font-family="sans" text-anchor="middle"><tspan x="126.0" dy="11">SW-001 / 1</tspan><tspan x="126.0" dy="11">DPST disconnect</tspan></text><text x="306.0" y="-34.6" dominant-baseline="ideographic" fill="#c8262a" font-size="11" font-family="sans" text-anchor="middle"><tspan x="306.0" dy="11">FUSE-001</tspan><tspan x="306.0" dy="11">15 A</tspan></text><circle cx="112.32000000000001" cy="72.0" r="4.32" style="stroke:#404040;fill:white;stroke-width:2.0;stroke-dasharray:-;" /><circle cx="139.68" cy="72.0" r="4.32" style="stroke:#404040;fill:white;stroke-width:2.0;stroke-dasharray:-;" /><text x="126.0" y="68.92" dominant-baseline="hanging" fill="#404040" font-size="11" font-family="sans" text-anchor="middle"><tspan x="126.0" dy="11">SW-001 / 2</tspan></text><text x="255.6" y="194.4" dominant-baseline="central" fill="black" font-size="9" font-family="sans" text-anchor="middle"><tspan x="255.6" dy="9">Mains Entry and Protection - 120 V / 15 A branch</tspan><tspan x="255.6" dy="9">DPST switch breaks BOTH L and N (E8). 15 A fuse on L only.</tspan><tspan x="255.6" dy="9">Strain relief on cord. PE unswitched, bonded to chassis.</tspan></text><circle cx="0.0" cy="-0.0" r="2.6999999999999997" style="stroke:black;fill:white;stroke-width:2.0;stroke-dasharray:-;" /><text x="-6.3" y="-16.5" dominant-baseline="central" fill="black" font-size="11" font-family="sans" text-anchor="end"><tspan x="-6.3" dy="11">L</tspan><tspan x="-6.3" dy="11">(black)</tspan></text><circle cx="0.0" cy="72.0" r="2.6999999999999997" style="stroke:black;fill:white;stroke-width:2.0;stroke-dasharray:-;" /><text x="-6.3" y="55.5" dominant-baseline="central" fill="black" font-size="11" font-family="sans" text-anchor="end"><tspan x="-6.3" dy="11">N</tspan><tspan x="-6.3" dy="11">(white)</tspan></text><circle cx="0.0" cy="144.0" r="2.6999999999999997" style="stroke:black;fill:white;stroke-width:2.0;stroke-dasharray:-;" /><text x="-6.3" y="127.5" dominant-baseline="central" fill="black" font-size="11" font-family="sans" text-anchor="end"><tspan x="-6.3" dy="11">G</tspan><tspan x="-6.3" dy="11">(green)</tspan></text><circle cx="504.0" cy="-0.0" r="2.6999999999999997" style="stroke:black;fill:black;stroke-width:2.0;stroke-dasharray:-;" /><text x="510.3" y="-11.0" dominant-baseline="central" fill="black" font-size="11" font-family="sans" text-anchor="start"><tspan x="510.3" dy="11">L bus</tspan></text><circle cx="504.0" cy="72.0" r="2.6999999999999997" style="stroke:black;fill:black;stroke-width:2.0;stroke-dasharray:-;" /><text x="510.3" y="61.0" dominant-baseline="central" fill="black" font-size="11" font-family="sans" text-anchor="start"><tspan x="510.3" dy="11">N bus</tspan></text><circle cx="504.0" cy="144.0" r="2.6999999999999997" style="stroke:#1f9d3a;fill:#1f9d3a;stroke-width:2.0;stroke-dasharray:-;" /><text x="510.3" y="127.5" dominant-baseline="central" fill="#1f9d3a" font-size="11" font-family="sans" text-anchor="start"><tspan x="510.3" dy="11">Chassis GND bus</tspan><tspan x="510.3" dy="11">(green stud)</tspan></text></svg>