<svg xmlns="http://www.w3.org/2000/svg" xmlns:xlink="http://www.w3.org/1999/xlink" xml:lang="en" height="511.7pt" width="1007.66pt" viewBox="-35.32 -47.19999999999999 1007.66 511.7"><path d="M 396.0,93.60000000000001 L 396.0,-28.80000000000001 L 540.0,-28.80000000000001 L 540.0,93.60000000000001 L 396.0,93.60000000000001" style="stroke:black;fill:none;stroke-width:2.0;stroke-dasharray:-;stroke-linecap:round;stroke-linejoin:round;" /><path d="M 0.0,324.0 L 0.0,252.0 L 126.0,252.0 L 126.0,324.0 L 0.0,324.0" style="stroke:black;fill:none;stroke-width:2.0;stroke-dasharray:-;stroke-linecap:round;stroke-linejoin:round;" /><path d="M 0.0,-0.0 L 36.0,-0.0 L 72.0,-0.0" style="stroke:#c8262a;fill:none;stroke-width:2.0;stroke-dasharray:-;stroke-linecap:round;stroke-linejoin:round;" /><path d="M 72.0,-0.0 L 108.0,-0.0 L 108.0,-9.0 L 144.0,-9.0 L 144.0,9.0 L 108.0,9.0 L 108.0,-0.0 M 144.0,-0.0 L 180.0,-0.0" style="stroke:#c8262a;fill:none;stroke-width:2.0;stroke-dasharray:-;stroke-linecap:round;stroke-linejoin:round;" /><path d="M 108.0,-0.0 L 144.0,-0.0" style="stroke:#c8262a;fill:none;stroke-width:2.0;stroke-dasharray:-;stroke-linecap:round;stroke-linejoin:round;" /><path d="M 180.0,-0.0 L 198.0,-0.0 L 216.0,-0.0" style="stroke:#c8262a;fill:none;stroke-width:2.0;stroke-dasharray:-;stroke-linecap:round;stroke-linejoin:round;" /><path d="M 216.0,-0.0 L 252.0,-0.0 L 252.0,-9.0 L 288.0,-9.0 L 288.0,9.0 L 252.0,9.0 L 252.0,-0.0 M 288.0,-0.0 L 324.0,-0.0" style="stroke:#c8262a;fill:none;stroke-width:2.0;stroke-dasharray:-;stroke-linecap:round;stroke-linejoin:round;" /><path d="M 252.0,-0.0 L 288.0,-0.0" style="stroke:#c8262a;fill:none;stroke-width:2.0;stroke-dasharray:-;stroke-linecap:round;stroke-linejoin:round;" /><path d="M 324.0,-0.0 L 360.0,-0.0 L 396.0,-0.0" style="stroke:#c8262a;fill:none;stroke-width:2.0;stroke-dasharray:-;stroke-linecap:round;stroke-linejoin:round;" /><path d="M 396.0,-0.0 L 468.0,-0.0 L 540.0,-0.0" style="stroke:#c8262a;fill:none;stroke-width:2.0;stroke-dasharray:-;stroke-linecap:round;stroke-linejoin:round;" /><path d="M 396.0,-0.0 L 396.0,28.8 L 396.0,57.6" style="stroke:black;fill:none;stroke-width:2.0;stroke-dasharray:-;stroke-linecap:round;stroke-linejoin:round;" /><path d="M 396.0,57.6 L 408.59999999999997,57.6 L 411.6,48.6 L 417.59999999999997,66.60000000000001 L 423.59999999999997,48.6 L 429.6,66.60000000000001 L 435.59999999999997,48.6 L 441.59999999999997,66.60000000000001 L 444.59999999999997,57.6 L 457.2,57.6" style="stroke:black;fill:none;stroke-width:2.0;stroke-dasharray:-;stroke-linecap:round;stroke-linejoin:round;" /><path d="M 457.2,57.6 L 495.36,57.6 M 495.36,48.6 L 495.36,66.60000000000001 M 501.84,48.6 L 501.84,66.60000000000001 M 501.84,57.6 L 540.0,57.6" style="stroke:black;fill:none;stroke-width:2.0;stroke-dasharray:-;stroke-linecap:round;stroke-linejoin:round;" /><path d="M 540.0,57.6 L 540.0,28.8 L 540.0,-0.0" style="stroke:black;fill:none;stroke-width:2.0;stroke-dasharray:-;stroke-linecap:round;stroke-linejoin:round;" /><path d="M 540.0,-0.0 L 576.0,-0.0 L 612.0,-0.0" style="stroke:#c8262a;fill:none;stroke-width:2.0;stroke-dasharray:-;stroke-linecap:round;stroke-linejoin:round;" /><path d="M 612.0,-0.0 L 684.0,-0.0 L 687.0,-9.0 L 693.0,9.0 L 699.0,-9.0 L 705.0,9.0 L 711.0,-9.0 L 717.0,9.0 L 720.0,-0.0 L 792.0,-0.0" style="stroke:#c8262a;fill:none;stroke-width:2.0;stroke-dasharray:-;stroke-linecap:round;stroke-linejoin:round;" /><path d="M 792.0,-0.0 L 864.0,-0.0 L 936.0,-0.0" style="stroke:#404040;fill:none;stroke-width:2.0;stroke-dasharray:-;stroke-linecap:round;stroke-linejoin:round;" /><path d="M 126.0,288.0 L 171.0,288.0 L 216.0,288.0" style="stroke:#7b3fbf;fill:none;stroke-width:2.0;stroke-dasharray:-;stroke-linecap:round;stroke-linejoin:round;" /><path d="M 216.0,288.0 L 252.0,288.0 L 255.0,279.0 L 261.0,297.0 L 267.0,279.0 L 273.0,297.0 L 279.0,279.0 L 285.0,297.0 L 288.0,288.0 L 324.0,288.0" style="stroke:#7b3fbf;fill:none;stroke-width:2.0;stroke-dasharray:-;stroke-linecap:round;stroke-linejoin:round;" /><path d="M 324.0,288.0 L 351.0,288.0 L 378.0,288.0" style="stroke:#7b3fbf;fill:none;stroke-width:2.0;stroke-dasharray:-;stroke-linecap:round;stroke-linejoin:round;" /><path d="M 378.0,288.0 L 391.20000000000005,288.0" style="stroke:black;fill:none;stroke-width:2.0;stroke-dasharray:-;stroke-linecap:round;stroke-linejoin:round;" /><path d="M 391.20000000000005,274.8 L 391.20000000000005,301.20000000000005" style="stroke:black;fill:none;stroke-width:2.0;stroke-dasharray:-;stroke-linecap:round;stroke-linejoin:round;" /><path d="M 391.20000000000005,281.4 L 405.06,269.52 L 405.06,262.92" style="stroke:black;fill:none;stroke-width:2.0;stroke-dasharray:-;stroke-linecap:round;stroke-linejoin:round;" /><path d="M 391.20000000000005,294.6 L 405.06,306.48 L 405.06,313.08000000000004" style="stroke:black;fill:none;stroke-width:2.0;stroke-dasharray:-;stroke-linecap:round;stroke-linejoin:round;" /><path d="M 391.20000000000005,294.6 L 398.22669057871235,300.6228776388963" style="stroke:black;fill:none;stroke-width:2.0;stroke-dasharray:-;stroke-linecap:round;stroke-linejoin:round;" /><path d="M 403.5414867952694 305.17841725308807 L 395.8838416342708 303.35620140741133 L 400.5695395231538 297.88955387038123 Z" style="stroke:black;fill:black;stroke-linecap:butt;stroke-linejoin:miter;" /><path d="M 405.06,313.08000000000004 L 405.06,345.53999999999996 L 405.06,378.0" style="stroke:black;fill:none;stroke-width:2.0;stroke-dasharray:-;stroke-linecap:round;stroke-linejoin:round;" /><path d="M 405.06,378.0 L 405.06,392.40000000000003 L 396.06,392.40000000000003 L 414.06,392.40000000000003 M 398.76,396.71999999999997 L 411.36,396.71999999999997 M 403.26,401.04 L 406.86,401.04" style="stroke:black;fill:none;stroke-width:2.0;stroke-dasharray:-;stroke-linecap:round;stroke-linejoin:round;" /><path d="M 405.06,262.92 L 405.06,221.46000000000004 L 405.06,180.0" style="stroke:#e07a1a;fill:none;stroke-width:2.0;stroke-dasharray:-;stroke-linecap:round;stroke-linejoin:round;" /><path d="M 405.06,180.0 L 490.53,180.0 L 576.0,180.0" style="stroke:#e07a1a;fill:none;stroke-width:2.0;stroke-dasharray:-;stroke-linecap:round;stroke-linejoin:round;" /><path d="M 576.0,180.0 L 630.0,180.0 L 684.0,180.0" style="stroke:#e07a1a;fill:none;stroke-width:2.0;stroke-dasharray:-;stroke-linecap:round;stroke-linejoin:round;" /><text x="126.0" y="-42.6" dominant-baseline="ideographic" fill="#c8262a" font-size="10" font-family="sans" text-anchor="middle"><tspan x="126.0" dy="10">THFUSE-001</tspan><tspan x="126.0" dy="10">228 C</tspan><tspan x="126.0" dy="10">(on can body)</tspan></text><text x="270.0" y="-42.6" dominant-baseline="ideographic" fill="#c8262a" font-size="10" font-family="sans" text-anchor="middle"><tspan x="270.0" dy="10">THFUSE-002</tspan><tspan x="270.0" dy="10">192-216 C</tspan><tspan x="270.0" dy="10">(in airstream)</tspan></text><text x="471.59999999999997" y="-31.5" dominant-baseline="central" fill="black" font-size="9" font-family="sans" text-anchor="middle"><tspan x="471.59999999999997" dy="9">SSR-001</tspan><tspan x="471.59999999999997" dy="9">25 A zero-cross</tspan></text><text x="426.59999999999997" y="29.0" dominant-baseline="ideographic" fill="black" font-size="8" font-family="sans" text-anchor="middle"><tspan x="426.59999999999997" dy="8">R-SNB</tspan><tspan x="426.59999999999997" dy="8">47 ohm 2W</tspan></text><text x="498.59999999999997" y="21.0" dominant-baseline="ideographic" fill="black" font-size="8" font-family="sans" text-anchor="middle"><tspan x="498.59999999999997" dy="8">C-SNB</tspan><tspan x="498.59999999999997" dy="8">0.01 uF</tspan><tspan x="498.59999999999997" dy="8">X2 400V</tspan></text><text x="702.0" y="-42.6" dominant-baseline="ideographic" fill="#c8262a" font-size="10" font-family="sans" text-anchor="middle"><tspan x="702.0" dy="10">HTR-001</tspan><tspan x="702.0" dy="10">Warrior 1500 W</tspan><tspan x="702.0" dy="10">~9.6 ohm  (~12.5 A)</tspan></text><text x="66.60000000000001" y="266.40000000000003" dominant-baseline="central" fill="black" font-size="9" font-family="sans" text-anchor="middle"><tspan x="66.60000000000001" dy="9">ESP32</tspan><tspan x="66.60000000000001" dy="9">GPIO 22</tspan><tspan x="66.60000000000001" dy="9">(PIN_SSR)</tspan></text><text x="270.0" y="255.40000000000003" dominant-baseline="ideographic" fill="#7b3fbf" font-size="10" font-family="sans" text-anchor="middle"><tspan x="270.0" dy="10">R3</tspan><tspan x="270.0" dy="10">1 k</tspan></text><text x="374.40000000000003" y="273.29999999999995" dominant-baseline="central" fill="black" font-size="10" font-family="sans" text-anchor="end"><tspan x="374.40000000000003" dy="10">Q2</tspan><tspan x="374.40000000000003" dy="10">2N2222</tspan></text><text x="471.59999999999997" y="428.40000000000003" dominant-baseline="central" fill="black" font-size="9" font-family="sans" text-anchor="middle"><tspan x="471.59999999999997" dy="9">Domain 1 - Heater Circuit (120 V AC)</tspan><tspan x="471.59999999999997" dy="9">L-side switching only. Two thermal fuses in series upstream of SSR (E6).</tspan><tspan x="471.59999999999997" dy="9">RC snubber across SSR (E10). NPN buffer Q2 lifts 3.3 V GPIO to 5 V SSR drive (E7).</tspan></text><circle cx="0.0" cy="-0.0" r="2.6999999999999997" style="stroke:black;fill:black;stroke-width:2.0;stroke-dasharray:-;" /><text x="-6.3" y="-10.0" dominant-baseline="central" fill="black" font-size="10" font-family="sans" text-anchor="end"><tspan x="-6.3" dy="10">L bus</tspan></text><circle cx="396.0" cy="-0.0" r="2.6999999999999997" style="stroke:black;fill:black;stroke-width:2.0;stroke-dasharray:-;" /><circle cx="540.0" cy="-0.0" r="2.6999999999999997" style="stroke:black;fill:black;stroke-width:2.0;stroke-dasharray:-;" /><circle cx="936.0" cy="-0.0" r="2.6999999999999997" style="stroke:black;fill:black;stroke-width:2.0;stroke-dasharray:-;" /><text x="942.3000000000001" y="-10.0" dominant-baseline="central" fill="black" font-size="10" font-family="sans" text-anchor="start"><tspan x="942.3000000000001" dy="10">N bus</tspan></text><circle cx="126.0" cy="288.0" r="2.6999999999999997" style="stroke:black;fill:black;stroke-width:2.0;stroke-dasharray:-;" /><circle cx="405.06" cy="180.0" r="2.6999999999999997" style="stroke:black;fill:black;stroke-width:2.0;stroke-dasharray:-;" /><text x="405.06" y="157.70000000000002" dominant-baseline="ideographic" fill="black" font-size="8" font-family="sans" text-anchor="middle"><tspan x="405.06" dy="8">SSR DC -</tspan><tspan x="405.06" dy="8">(to gate)</tspan></text><circle cx="576.0" cy="180.0" r="2.6999999999999997" style="stroke:black;fill:black;stroke-width:2.0;stroke-dasharray:-;" /><text x="576.0" y="165.70000000000002" dominant-baseline="ideographic" fill="black" font-size="8" font-family="sans" text-anchor="middle"><tspan x="576.0" dy="8">SSR DC +</tspan></text><circle cx="684.0" cy="180.0" r="2.6999999999999997" style="stroke:black;fill:white;stroke-width:2.0;stroke-dasharray:-;" /><text x="690.3000000000001" y="165.0" dominant-baseline="central" fill="black" font-size="10" font-family="sans" text-anchor="start"><tspan x="690.3000000000001" dy="10">+5 V</tspan><tspan x="690.3000000000001" dy="10">(from PSU-001)</tspan></text></svg>