<?xml version="1.0" encoding="utf-8" standalone="no"?>
<!DOCTYPE svg PUBLIC "-//W3C//DTD SVG 1.1//EN"
  "http://www.w3.org/Graphics/SVG/1.1/DTD/svg11.dtd">
<svg xmlns:xlink="http://www.w3.org/1999/xlink" width="1151.82pt" height="645.66pt" viewBox="0 0 1151.82 645.66" xmlns="http://www.w3.org/2000/svg" version="1.1">
 <metadata>
  <rdf:RDF xmlns:dc="http://purl.org/dc/elements/1.1/" xmlns:cc="http://creativecommons.org/ns#" xmlns:rdf="http://www.w3.org/1999/02/22-rdf-syntax-ns#">
   <cc:Work>
    <dc:type rdf:resource="http://purl.org/dc/dcmitype/StillImage"/>
    <dc:date>2026-05-09T17:17:19.911523</dc:date>
    <dc:format>image/svg+xml</dc:format>
    <dc:creator>
     <cc:Agent>
      <dc:title>Matplotlib v3.10.9, https://matplotlib.org/</dc:title>
     </cc:Agent>
    </dc:creator>
   </cc:Work>
  </rdf:RDF>
 </metadata>
 <defs>
  <style type="text/css">*{stroke-linejoin: round; stroke-linecap: butt}</style>
 </defs>
 <g id="figure_1">
  <g id="patch_1">
   <path d="M 0 645.66 
L 1151.82 645.66 
L 1151.82 0 
L 0 0 
L 0 645.66 
z
" style="fill: none"/>
  </g>
  <g id="axes_1">
   <g id="line2d_1">
    <path d="M 107.4 115.38 
L 107.4 43.38 
L 215.4 43.38 
L 215.4 115.38 
L 107.4 115.38 
" clip-path="url(#p5409809c34)" style="fill: none; stroke: #000000; stroke-width: 2; stroke-linecap: round"/>
   </g>
   <g id="line2d_2">
    <path d="M 269.4 115.38 
L 269.4 43.38 
L 359.4 43.38 
L 359.4 115.38 
L 269.4 115.38 
" clip-path="url(#p5409809c34)" style="fill: none; stroke: #000000; stroke-width: 2; stroke-linecap: round"/>
   </g>
   <g id="line2d_3">
    <path d="M 431.4 151.38 
L 431.4 7.38 
L 647.4 7.38 
L 647.4 151.38 
L 431.4 151.38 
" clip-path="url(#p5409809c34)" style="fill: none; stroke: #000000; stroke-width: 2; stroke-linecap: round"/>
   </g>
   <g id="line2d_4">
    <path d="M 215.4 511.38 
L 215.4 367.38 
L 359.4 367.38 
L 359.4 511.38 
L 215.4 511.38 
" clip-path="url(#p5409809c34)" style="fill: none; stroke: #000000; stroke-width: 2; stroke-linecap: round"/>
   </g>
   <g id="patch_2">
    <path d="M 764.4 97.38 
C 769.173656 97.38 773.752438 95.483406 777.127922 92.107922 
C 780.503406 88.732438 782.4 84.153656 782.4 79.38 
C 782.4 74.606344 780.503406 70.027562 777.127922 66.652078 
C 773.752438 63.276594 769.173656 61.38 764.4 61.38 
C 759.626344 61.38 755.047562 63.276594 751.672078 66.652078 
C 748.296594 70.027562 746.4 74.606344 746.4 79.38 
C 746.4 84.153656 748.296594 88.732438 751.672078 92.107922 
C 755.047562 95.483406 759.626344 97.38 764.4 97.38 
L 764.4 97.38 
z
" clip-path="url(#p5409809c34)" style="fill: none; stroke: #000000; stroke-width: 2; stroke-linejoin: miter"/>
   </g>
   <g id="line2d_5">
    <path d="M 35.4 79.38 
L 71.4 79.38 
L 107.4 79.38 
" clip-path="url(#p5409809c34)" style="fill: none; stroke: #c8262a; stroke-width: 2; stroke-linecap: round"/>
   </g>
   <g id="line2d_6">
    <path d="M 107.4 79.38 
L 161.4 79.38 
L 215.4 79.38 
" clip-path="url(#p5409809c34)" style="fill: none; stroke: #c8262a; stroke-width: 2; stroke-linecap: round"/>
   </g>
   <g id="line2d_7">
    <path d="M 215.4 79.38 
L 242.4 79.38 
L 269.4 79.38 
" clip-path="url(#p5409809c34)" style="fill: none; stroke: #c8262a; stroke-width: 2; stroke-linecap: round"/>
   </g>
   <g id="line2d_8">
    <path d="M 269.4 79.38 
L 314.4 79.38 
L 359.4 79.38 
" clip-path="url(#p5409809c34)" style="fill: none; stroke: #c8262a; stroke-width: 2; stroke-linecap: round"/>
   </g>
   <g id="line2d_9">
    <path d="M 314.4 115.38 
L 314.4 151.38 
L 314.4 187.38 
" clip-path="url(#p5409809c34)" style="fill: none; stroke: #000000; stroke-width: 2; stroke-linecap: round"/>
   </g>
   <g id="line2d_10">
    <path d="M 359.4 79.38 
L 395.4 79.38 
L 431.4 79.38 
" clip-path="url(#p5409809c34)" style="fill: none; stroke: #c8262a; stroke-width: 2; stroke-linecap: round"/>
   </g>
   <g id="line2d_11">
    <path d="M 431.4 79.38 
L 539.4 79.38 
L 647.4 79.38 
" clip-path="url(#p5409809c34)" style="fill: none; stroke: #c8262a; stroke-width: 2; stroke-linecap: round"/>
   </g>
   <g id="line2d_12">
    <path d="M 647.4 79.38 
L 683.4 79.38 
L 719.4 79.38 
" clip-path="url(#p5409809c34)" style="fill: none; stroke: #c8262a; stroke-width: 2; stroke-linecap: round"/>
   </g>
   <g id="line2d_13">
    <path d="M 719.4 79.38 
L 738.48 79.38 
L 738.48 79.38 
M 790.32 79.38 
L 790.32 79.38 
L 809.4 79.38 
" clip-path="url(#p5409809c34)" style="fill: none; stroke: #000000; stroke-width: 2; stroke-linecap: round"/>
   </g>
   <g id="line2d_14">
    <path d="M 746.4 87.3 
L 738.48 87.3 
L 738.48 71.46 
L 746.4 71.46 
" clip-path="url(#p5409809c34)" style="fill: none; stroke: #000000; stroke-width: 2; stroke-linecap: round"/>
   </g>
   <g id="line2d_15">
    <path d="M 782.4 87.3 
L 790.32 87.3 
L 790.32 71.46 
L 782.4 71.46 
" clip-path="url(#p5409809c34)" style="fill: none; stroke: #000000; stroke-width: 2; stroke-linecap: round"/>
   </g>
   <g id="line2d_16">
    <path d="M 809.4 79.38 
L 962.4 79.38 
L 1115.4 79.38 
" clip-path="url(#p5409809c34)" style="fill: none; stroke: #404040; stroke-width: 2; stroke-linecap: round"/>
   </g>
   <g id="line2d_17">
    <path d="M 764.4 133.38 
L 764.4 178.38 
L 764.4 223.38 
" clip-path="url(#p5409809c34)" style="fill: none; stroke: #1f9d3a; stroke-width: 2; stroke-linecap: round"/>
   </g>
   <g id="line2d_18">
    <path d="M 764.4 223.38 
L 764.4 237.78 
L 755.4 237.78 
L 773.4 237.78 
M 758.1 242.1 
L 770.7 242.1 
M 762.6 246.42 
L 766.2 246.42 
" clip-path="url(#p5409809c34)" style="fill: none; stroke: #1f9d3a; stroke-width: 2; stroke-linecap: round"/>
   </g>
   <g id="line2d_19">
    <path d="M 359.4 396.18 
L 395.4 396.18 
L 431.4 396.18 
" clip-path="url(#p5409809c34)" style="fill: none; stroke: #7b3fbf; stroke-width: 2; stroke-linecap: round"/>
   </g>
   <g id="line2d_20">
    <path d="M 431.4 396.18 
L 431.4 273.798 
L 431.4 151.416 
" clip-path="url(#p5409809c34)" style="fill: none; stroke: #7b3fbf; stroke-width: 2; stroke-linecap: round"/>
   </g>
   <g id="line2d_21">
    <path d="M 431.4 396.18 
L 458.4 396.18 
L 485.4 396.18 
" clip-path="url(#p5409809c34)" style="fill: none; stroke: #7b3fbf; stroke-width: 2; stroke-linecap: round"/>
   </g>
   <g id="line2d_22">
    <path d="M 485.4 396.18 
L 485.4 273.78 
L 485.4 151.38 
" clip-path="url(#p5409809c34)" style="fill: none; stroke: #7b3fbf; stroke-width: 2; stroke-linecap: round"/>
   </g>
   <g id="line2d_23">
    <path d="M 593.4 151.38 
L 593.4 295.38 
L 593.4 439.38 
" clip-path="url(#p5409809c34)" style="fill: none; stroke: #7b3fbf; stroke-width: 2; stroke-linecap: round"/>
   </g>
   <g id="line2d_24">
    <path d="M 593.4 439.38 
L 476.4 439.38 
L 359.4 439.38 
" clip-path="url(#p5409809c34)" style="fill: none; stroke: #7b3fbf; stroke-width: 2; stroke-linecap: round"/>
   </g>
   <g id="line2d_25">
    <path d="M 314.4 187.38 
L 314.4 205.38 
L 323.4 208.38 
L 305.4 214.38 
L 323.4 220.38 
L 305.4 226.38 
L 323.4 232.38 
L 305.4 238.38 
L 314.4 241.38 
L 314.4 259.38 
" clip-path="url(#p5409809c34)" style="fill: none; stroke: #000000; stroke-width: 2; stroke-linecap: round"/>
   </g>
   <g id="line2d_26">
    <path d="M 314.4 259.38 
L 314.4 273.78 
L 314.4 288.18 
" clip-path="url(#p5409809c34)" style="fill: none; stroke: #000000; stroke-width: 2; stroke-linecap: round"/>
   </g>
   <g id="line2d_27">
    <path d="M 314.4 288.18 
L 314.4 302.58 
L 305.4 302.58 
L 323.4 302.58 
M 308.1 306.9 
L 320.7 306.9 
M 312.6 311.22 
L 316.2 311.22 
" clip-path="url(#p5409809c34)" style="fill: none; stroke: #000000; stroke-width: 2; stroke-linecap: round"/>
   </g>
   <g id="line2d_28">
    <path d="M 314.4 223.38 
L 408.9 223.38 
L 503.4 223.38 
" clip-path="url(#p5409809c34)" style="fill: none; stroke: #7b3fbf; stroke-width: 2; stroke-linecap: round"/>
   </g>
   <g id="line2d_29">
    <path d="M 503.4 223.38 
L 503.4 352.98 
L 503.4 482.58 
" clip-path="url(#p5409809c34)" style="fill: none; stroke: #7b3fbf; stroke-width: 2; stroke-linecap: round"/>
   </g>
   <g id="line2d_30">
    <path d="M 503.4 482.58 
L 431.4 482.58 
L 359.4 482.58 
" clip-path="url(#p5409809c34)" style="fill: none; stroke: #7b3fbf; stroke-width: 2; stroke-linecap: round"/>
   </g>
   <g id="text_1">
    <!-- FILT-001 -->
    <g transform="translate(146.644922 11.953125) scale(0.09 -0.09)">
     <defs>
      <path id="DejaVuSans-46" d="M 628 4666 
L 3309 4666 
L 3309 4134 
L 1259 4134 
L 1259 2759 
L 3109 2759 
L 3109 2228 
L 1259 2228 
L 1259 0 
L 628 0 
L 628 4666 
z
" transform="scale(0.015625)"/>
      <path id="DejaVuSans-49" d="M 628 4666 
L 1259 4666 
L 1259 0 
L 628 0 
L 628 4666 
z
" transform="scale(0.015625)"/>
      <path id="DejaVuSans-4c" d="M 628 4666 
L 1259 4666 
L 1259 531 
L 3531 531 
L 3531 0 
L 628 0 
L 628 4666 
z
" transform="scale(0.015625)"/>
      <path id="DejaVuSans-54" d="M -19 4666 
L 3928 4666 
L 3928 4134 
L 2272 4134 
L 2272 0 
L 1638 0 
L 1638 4134 
L -19 4134 
L -19 4666 
z
" transform="scale(0.015625)"/>
      <path id="DejaVuSans-2d" d="M 313 2009 
L 1997 2009 
L 1997 1497 
L 313 1497 
L 313 2009 
z
" transform="scale(0.015625)"/>
      <path id="DejaVuSans-30" d="M 2034 4250 
Q 1547 4250 1301 3770 
Q 1056 3291 1056 2328 
Q 1056 1369 1301 889 
Q 1547 409 2034 409 
Q 2525 409 2770 889 
Q 3016 1369 3016 2328 
Q 3016 3291 2770 3770 
Q 2525 4250 2034 4250 
z
M 2034 4750 
Q 2819 4750 3233 4129 
Q 3647 3509 3647 2328 
Q 3647 1150 3233 529 
Q 2819 -91 2034 -91 
Q 1250 -91 836 529 
Q 422 1150 422 2328 
Q 422 3509 836 4129 
Q 1250 4750 2034 4750 
z
" transform="scale(0.015625)"/>
      <path id="DejaVuSans-31" d="M 794 531 
L 1825 531 
L 1825 4091 
L 703 3866 
L 703 4441 
L 1819 4666 
L 2450 4666 
L 2450 531 
L 3481 531 
L 3481 0 
L 794 0 
L 794 531 
z
" transform="scale(0.015625)"/>
     </defs>
     <use xlink:href="#DejaVuSans-46"/>
     <use xlink:href="#DejaVuSans-49" transform="translate(57.519531 0)"/>
     <use xlink:href="#DejaVuSans-4c" transform="translate(87.011719 0)"/>
     <use xlink:href="#DejaVuSans-54" transform="translate(128.974609 0)"/>
     <use xlink:href="#DejaVuSans-2d" transform="translate(180.933594 0)"/>
     <use xlink:href="#DejaVuSans-30" transform="translate(217.017578 0)"/>
     <use xlink:href="#DejaVuSans-30" transform="translate(280.640625 0)"/>
     <use xlink:href="#DejaVuSans-31" transform="translate(344.263672 0)"/>
    </g>
    <!-- AC line filter -->
    <g transform="translate(137.409375 20.663438) scale(0.09 -0.09)">
     <defs>
      <path id="DejaVuSans-41" d="M 2188 4044 
L 1331 1722 
L 3047 1722 
L 2188 4044 
z
M 1831 4666 
L 2547 4666 
L 4325 0 
L 3669 0 
L 3244 1197 
L 1141 1197 
L 716 0 
L 50 0 
L 1831 4666 
z
" transform="scale(0.015625)"/>
      <path id="DejaVuSans-43" d="M 4122 4306 
L 4122 3641 
Q 3803 3938 3442 4084 
Q 3081 4231 2675 4231 
Q 1875 4231 1450 3742 
Q 1025 3253 1025 2328 
Q 1025 1406 1450 917 
Q 1875 428 2675 428 
Q 3081 428 3442 575 
Q 3803 722 4122 1019 
L 4122 359 
Q 3791 134 3420 21 
Q 3050 -91 2638 -91 
Q 1578 -91 968 557 
Q 359 1206 359 2328 
Q 359 3453 968 4101 
Q 1578 4750 2638 4750 
Q 3056 4750 3426 4639 
Q 3797 4528 4122 4306 
z
" transform="scale(0.015625)"/>
      <path id="DejaVuSans-20" transform="scale(0.015625)"/>
      <path id="DejaVuSans-6c" d="M 603 4863 
L 1178 4863 
L 1178 0 
L 603 0 
L 603 4863 
z
" transform="scale(0.015625)"/>
      <path id="DejaVuSans-69" d="M 603 3500 
L 1178 3500 
L 1178 0 
L 603 0 
L 603 3500 
z
M 603 4863 
L 1178 4863 
L 1178 4134 
L 603 4134 
L 603 4863 
z
" transform="scale(0.015625)"/>
      <path id="DejaVuSans-6e" d="M 3513 2113 
L 3513 0 
L 2938 0 
L 2938 2094 
Q 2938 2591 2744 2837 
Q 2550 3084 2163 3084 
Q 1697 3084 1428 2787 
Q 1159 2491 1159 1978 
L 1159 0 
L 581 0 
L 581 3500 
L 1159 3500 
L 1159 2956 
Q 1366 3272 1645 3428 
Q 1925 3584 2291 3584 
Q 2894 3584 3203 3211 
Q 3513 2838 3513 2113 
z
" transform="scale(0.015625)"/>
      <path id="DejaVuSans-65" d="M 3597 1894 
L 3597 1613 
L 953 1613 
Q 991 1019 1311 708 
Q 1631 397 2203 397 
Q 2534 397 2845 478 
Q 3156 559 3463 722 
L 3463 178 
Q 3153 47 2828 -22 
Q 2503 -91 2169 -91 
Q 1331 -91 842 396 
Q 353 884 353 1716 
Q 353 2575 817 3079 
Q 1281 3584 2069 3584 
Q 2775 3584 3186 3129 
Q 3597 2675 3597 1894 
z
M 3022 2063 
Q 3016 2534 2758 2815 
Q 2500 3097 2075 3097 
Q 1594 3097 1305 2825 
Q 1016 2553 972 2059 
L 3022 2063 
z
" transform="scale(0.015625)"/>
      <path id="DejaVuSans-66" d="M 2375 4863 
L 2375 4384 
L 1825 4384 
Q 1516 4384 1395 4259 
Q 1275 4134 1275 3809 
L 1275 3500 
L 2222 3500 
L 2222 3053 
L 1275 3053 
L 1275 0 
L 697 0 
L 697 3053 
L 147 3053 
L 147 3500 
L 697 3500 
L 697 3744 
Q 697 4328 969 4595 
Q 1241 4863 1831 4863 
L 2375 4863 
z
" transform="scale(0.015625)"/>
      <path id="DejaVuSans-74" d="M 1172 4494 
L 1172 3500 
L 2356 3500 
L 2356 3053 
L 1172 3053 
L 1172 1153 
Q 1172 725 1289 603 
Q 1406 481 1766 481 
L 2356 481 
L 2356 0 
L 1766 0 
Q 1100 0 847 248 
Q 594 497 594 1153 
L 594 3053 
L 172 3053 
L 172 3500 
L 594 3500 
L 594 4494 
L 1172 4494 
z
" transform="scale(0.015625)"/>
      <path id="DejaVuSans-72" d="M 2631 2963 
Q 2534 3019 2420 3045 
Q 2306 3072 2169 3072 
Q 1681 3072 1420 2755 
Q 1159 2438 1159 1844 
L 1159 0 
L 581 0 
L 581 3500 
L 1159 3500 
L 1159 2956 
Q 1341 3275 1631 3429 
Q 1922 3584 2338 3584 
Q 2397 3584 2469 3576 
Q 2541 3569 2628 3553 
L 2631 2963 
z
" transform="scale(0.015625)"/>
     </defs>
     <use xlink:href="#DejaVuSans-41"/>
     <use xlink:href="#DejaVuSans-43" transform="translate(66.658203 0)"/>
     <use xlink:href="#DejaVuSans-20" transform="translate(136.482422 0)"/>
     <use xlink:href="#DejaVuSans-6c" transform="translate(168.269531 0)"/>
     <use xlink:href="#DejaVuSans-69" transform="translate(196.052734 0)"/>
     <use xlink:href="#DejaVuSans-6e" transform="translate(223.835938 0)"/>
     <use xlink:href="#DejaVuSans-65" transform="translate(287.214844 0)"/>
     <use xlink:href="#DejaVuSans-20" transform="translate(348.738281 0)"/>
     <use xlink:href="#DejaVuSans-66" transform="translate(380.525391 0)"/>
     <use xlink:href="#DejaVuSans-69" transform="translate(415.730469 0)"/>
     <use xlink:href="#DejaVuSans-6c" transform="translate(443.513672 0)"/>
     <use xlink:href="#DejaVuSans-74" transform="translate(471.296875 0)"/>
     <use xlink:href="#DejaVuSans-65" transform="translate(510.505859 0)"/>
     <use xlink:href="#DejaVuSans-72" transform="translate(572.029297 0)"/>
    </g>
    <!-- (X + Y caps) -->
    <g transform="translate(137.163281 29.37375) scale(0.09 -0.09)">
     <defs>
      <path id="DejaVuSans-28" d="M 1984 4856 
Q 1566 4138 1362 3434 
Q 1159 2731 1159 2009 
Q 1159 1288 1364 580 
Q 1569 -128 1984 -844 
L 1484 -844 
Q 1016 -109 783 600 
Q 550 1309 550 2009 
Q 550 2706 781 3412 
Q 1013 4119 1484 4856 
L 1984 4856 
z
" transform="scale(0.015625)"/>
      <path id="DejaVuSans-58" d="M 403 4666 
L 1081 4666 
L 2241 2931 
L 3406 4666 
L 4084 4666 
L 2584 2425 
L 4184 0 
L 3506 0 
L 2194 1984 
L 872 0 
L 191 0 
L 1856 2491 
L 403 4666 
z
" transform="scale(0.015625)"/>
      <path id="DejaVuSans-2b" d="M 2944 4013 
L 2944 2272 
L 4684 2272 
L 4684 1741 
L 2944 1741 
L 2944 0 
L 2419 0 
L 2419 1741 
L 678 1741 
L 678 2272 
L 2419 2272 
L 2419 4013 
L 2944 4013 
z
" transform="scale(0.015625)"/>
      <path id="DejaVuSans-59" d="M -13 4666 
L 666 4666 
L 1959 2747 
L 3244 4666 
L 3922 4666 
L 2272 2222 
L 2272 0 
L 1638 0 
L 1638 2222 
L -13 4666 
z
" transform="scale(0.015625)"/>
      <path id="DejaVuSans-63" d="M 3122 3366 
L 3122 2828 
Q 2878 2963 2633 3030 
Q 2388 3097 2138 3097 
Q 1578 3097 1268 2742 
Q 959 2388 959 1747 
Q 959 1106 1268 751 
Q 1578 397 2138 397 
Q 2388 397 2633 464 
Q 2878 531 3122 666 
L 3122 134 
Q 2881 22 2623 -34 
Q 2366 -91 2075 -91 
Q 1284 -91 818 406 
Q 353 903 353 1747 
Q 353 2603 823 3093 
Q 1294 3584 2113 3584 
Q 2378 3584 2631 3529 
Q 2884 3475 3122 3366 
z
" transform="scale(0.015625)"/>
      <path id="DejaVuSans-61" d="M 2194 1759 
Q 1497 1759 1228 1600 
Q 959 1441 959 1056 
Q 959 750 1161 570 
Q 1363 391 1709 391 
Q 2188 391 2477 730 
Q 2766 1069 2766 1631 
L 2766 1759 
L 2194 1759 
z
M 3341 1997 
L 3341 0 
L 2766 0 
L 2766 531 
Q 2569 213 2275 61 
Q 1981 -91 1556 -91 
Q 1019 -91 701 211 
Q 384 513 384 1019 
Q 384 1609 779 1909 
Q 1175 2209 1959 2209 
L 2766 2209 
L 2766 2266 
Q 2766 2663 2505 2880 
Q 2244 3097 1772 3097 
Q 1472 3097 1187 3025 
Q 903 2953 641 2809 
L 641 3341 
Q 956 3463 1253 3523 
Q 1550 3584 1831 3584 
Q 2591 3584 2966 3190 
Q 3341 2797 3341 1997 
z
" transform="scale(0.015625)"/>
      <path id="DejaVuSans-70" d="M 1159 525 
L 1159 -1331 
L 581 -1331 
L 581 3500 
L 1159 3500 
L 1159 2969 
Q 1341 3281 1617 3432 
Q 1894 3584 2278 3584 
Q 2916 3584 3314 3078 
Q 3713 2572 3713 1747 
Q 3713 922 3314 415 
Q 2916 -91 2278 -91 
Q 1894 -91 1617 61 
Q 1341 213 1159 525 
z
M 3116 1747 
Q 3116 2381 2855 2742 
Q 2594 3103 2138 3103 
Q 1681 3103 1420 2742 
Q 1159 2381 1159 1747 
Q 1159 1113 1420 752 
Q 1681 391 2138 391 
Q 2594 391 2855 752 
Q 3116 1113 3116 1747 
z
" transform="scale(0.015625)"/>
      <path id="DejaVuSans-73" d="M 2834 3397 
L 2834 2853 
Q 2591 2978 2328 3040 
Q 2066 3103 1784 3103 
Q 1356 3103 1142 2972 
Q 928 2841 928 2578 
Q 928 2378 1081 2264 
Q 1234 2150 1697 2047 
L 1894 2003 
Q 2506 1872 2764 1633 
Q 3022 1394 3022 966 
Q 3022 478 2636 193 
Q 2250 -91 1575 -91 
Q 1294 -91 989 -36 
Q 684 19 347 128 
L 347 722 
Q 666 556 975 473 
Q 1284 391 1588 391 
Q 1994 391 2212 530 
Q 2431 669 2431 922 
Q 2431 1156 2273 1281 
Q 2116 1406 1581 1522 
L 1381 1569 
Q 847 1681 609 1914 
Q 372 2147 372 2553 
Q 372 3047 722 3315 
Q 1072 3584 1716 3584 
Q 2034 3584 2315 3537 
Q 2597 3491 2834 3397 
z
" transform="scale(0.015625)"/>
      <path id="DejaVuSans-29" d="M 513 4856 
L 1013 4856 
Q 1481 4119 1714 3412 
Q 1947 2706 1947 2009 
Q 1947 1309 1714 600 
Q 1481 -109 1013 -844 
L 513 -844 
Q 928 -128 1133 580 
Q 1338 1288 1338 2009 
Q 1338 2731 1133 3434 
Q 928 4138 513 4856 
z
" transform="scale(0.015625)"/>
     </defs>
     <use xlink:href="#DejaVuSans-28"/>
     <use xlink:href="#DejaVuSans-58" transform="translate(39.013672 0)"/>
     <use xlink:href="#DejaVuSans-20" transform="translate(107.519531 0)"/>
     <use xlink:href="#DejaVuSans-2b" transform="translate(139.306641 0)"/>
     <use xlink:href="#DejaVuSans-20" transform="translate(223.095703 0)"/>
     <use xlink:href="#DejaVuSans-59" transform="translate(254.882812 0)"/>
     <use xlink:href="#DejaVuSans-20" transform="translate(315.966797 0)"/>
     <use xlink:href="#DejaVuSans-63" transform="translate(347.753906 0)"/>
     <use xlink:href="#DejaVuSans-61" transform="translate(402.734375 0)"/>
     <use xlink:href="#DejaVuSans-70" transform="translate(464.013672 0)"/>
     <use xlink:href="#DejaVuSans-73" transform="translate(527.490234 0)"/>
     <use xlink:href="#DejaVuSans-29" transform="translate(579.589844 0)"/>
    </g>
   </g>
   <g id="text_2">
    <!-- CT-001 -->
    <g transform="translate(302.306953 11.953125) scale(0.09 -0.09)">
     <use xlink:href="#DejaVuSans-43"/>
     <use xlink:href="#DejaVuSans-54" transform="translate(69.824219 0)"/>
     <use xlink:href="#DejaVuSans-2d" transform="translate(121.783203 0)"/>
     <use xlink:href="#DejaVuSans-30" transform="translate(157.867188 0)"/>
     <use xlink:href="#DejaVuSans-30" transform="translate(221.490234 0)"/>
     <use xlink:href="#DejaVuSans-31" transform="translate(285.113281 0)"/>
    </g>
    <!-- ZMCT103C 5A -->
    <g transform="translate(286.040859 20.663438) scale(0.09 -0.09)">
     <defs>
      <path id="DejaVuSans-5a" d="M 359 4666 
L 4025 4666 
L 4025 4184 
L 1075 531 
L 4097 531 
L 4097 0 
L 288 0 
L 288 481 
L 3238 4134 
L 359 4134 
L 359 4666 
z
" transform="scale(0.015625)"/>
      <path id="DejaVuSans-4d" d="M 628 4666 
L 1569 4666 
L 2759 1491 
L 3956 4666 
L 4897 4666 
L 4897 0 
L 4281 0 
L 4281 4097 
L 3078 897 
L 2444 897 
L 1241 4097 
L 1241 0 
L 628 0 
L 628 4666 
z
" transform="scale(0.015625)"/>
      <path id="DejaVuSans-33" d="M 2597 2516 
Q 3050 2419 3304 2112 
Q 3559 1806 3559 1356 
Q 3559 666 3084 287 
Q 2609 -91 1734 -91 
Q 1441 -91 1130 -33 
Q 819 25 488 141 
L 488 750 
Q 750 597 1062 519 
Q 1375 441 1716 441 
Q 2309 441 2620 675 
Q 2931 909 2931 1356 
Q 2931 1769 2642 2001 
Q 2353 2234 1838 2234 
L 1294 2234 
L 1294 2753 
L 1863 2753 
Q 2328 2753 2575 2939 
Q 2822 3125 2822 3475 
Q 2822 3834 2567 4026 
Q 2313 4219 1838 4219 
Q 1578 4219 1281 4162 
Q 984 4106 628 3988 
L 628 4550 
Q 988 4650 1302 4700 
Q 1616 4750 1894 4750 
Q 2613 4750 3031 4423 
Q 3450 4097 3450 3541 
Q 3450 3153 3228 2886 
Q 3006 2619 2597 2516 
z
" transform="scale(0.015625)"/>
      <path id="DejaVuSans-35" d="M 691 4666 
L 3169 4666 
L 3169 4134 
L 1269 4134 
L 1269 2991 
Q 1406 3038 1543 3061 
Q 1681 3084 1819 3084 
Q 2600 3084 3056 2656 
Q 3513 2228 3513 1497 
Q 3513 744 3044 326 
Q 2575 -91 1722 -91 
Q 1428 -91 1123 -41 
Q 819 9 494 109 
L 494 744 
Q 775 591 1075 516 
Q 1375 441 1709 441 
Q 2250 441 2565 725 
Q 2881 1009 2881 1497 
Q 2881 1984 2565 2268 
Q 2250 2553 1709 2553 
Q 1456 2553 1204 2497 
Q 953 2441 691 2322 
L 691 4666 
z
" transform="scale(0.015625)"/>
     </defs>
     <use xlink:href="#DejaVuSans-5a"/>
     <use xlink:href="#DejaVuSans-4d" transform="translate(68.505859 0)"/>
     <use xlink:href="#DejaVuSans-43" transform="translate(154.785156 0)"/>
     <use xlink:href="#DejaVuSans-54" transform="translate(224.609375 0)"/>
     <use xlink:href="#DejaVuSans-31" transform="translate(285.693359 0)"/>
     <use xlink:href="#DejaVuSans-30" transform="translate(349.316406 0)"/>
     <use xlink:href="#DejaVuSans-33" transform="translate(412.939453 0)"/>
     <use xlink:href="#DejaVuSans-43" transform="translate(476.5625 0)"/>
     <use xlink:href="#DejaVuSans-20" transform="translate(546.386719 0)"/>
     <use xlink:href="#DejaVuSans-35" transform="translate(578.173828 0)"/>
     <use xlink:href="#DejaVuSans-41" transform="translate(641.796875 0)"/>
    </g>
    <!-- (split-core) -->
    <g transform="translate(293.654297 29.37375) scale(0.09 -0.09)">
     <defs>
      <path id="DejaVuSans-6f" d="M 1959 3097 
Q 1497 3097 1228 2736 
Q 959 2375 959 1747 
Q 959 1119 1226 758 
Q 1494 397 1959 397 
Q 2419 397 2687 759 
Q 2956 1122 2956 1747 
Q 2956 2369 2687 2733 
Q 2419 3097 1959 3097 
z
M 1959 3584 
Q 2709 3584 3137 3096 
Q 3566 2609 3566 1747 
Q 3566 888 3137 398 
Q 2709 -91 1959 -91 
Q 1206 -91 779 398 
Q 353 888 353 1747 
Q 353 2609 779 3096 
Q 1206 3584 1959 3584 
z
" transform="scale(0.015625)"/>
     </defs>
     <use xlink:href="#DejaVuSans-28"/>
     <use xlink:href="#DejaVuSans-73" transform="translate(39.013672 0)"/>
     <use xlink:href="#DejaVuSans-70" transform="translate(91.113281 0)"/>
     <use xlink:href="#DejaVuSans-6c" transform="translate(154.589844 0)"/>
     <use xlink:href="#DejaVuSans-69" transform="translate(182.373047 0)"/>
     <use xlink:href="#DejaVuSans-74" transform="translate(210.15625 0)"/>
     <use xlink:href="#DejaVuSans-2d" transform="translate(249.365234 0)"/>
     <use xlink:href="#DejaVuSans-63" transform="translate(285.449219 0)"/>
     <use xlink:href="#DejaVuSans-6f" transform="translate(340.429688 0)"/>
     <use xlink:href="#DejaVuSans-72" transform="translate(401.611328 0)"/>
     <use xlink:href="#DejaVuSans-65" transform="translate(440.474609 0)"/>
     <use xlink:href="#DejaVuSans-29" transform="translate(501.998047 0)"/>
    </g>
   </g>
   <g id="text_3">
    <!-- BLW-CTRL-001 -->
    <g transform="translate(510.263906 23.508281) scale(0.09 -0.09)">
     <defs>
      <path id="DejaVuSans-42" d="M 1259 2228 
L 1259 519 
L 2272 519 
Q 2781 519 3026 730 
Q 3272 941 3272 1375 
Q 3272 1813 3026 2020 
Q 2781 2228 2272 2228 
L 1259 2228 
z
M 1259 4147 
L 1259 2741 
L 2194 2741 
Q 2656 2741 2882 2914 
Q 3109 3088 3109 3444 
Q 3109 3797 2882 3972 
Q 2656 4147 2194 4147 
L 1259 4147 
z
M 628 4666 
L 2241 4666 
Q 2963 4666 3353 4366 
Q 3744 4066 3744 3513 
Q 3744 3084 3544 2831 
Q 3344 2578 2956 2516 
Q 3422 2416 3680 2098 
Q 3938 1781 3938 1306 
Q 3938 681 3513 340 
Q 3088 0 2303 0 
L 628 0 
L 628 4666 
z
" transform="scale(0.015625)"/>
      <path id="DejaVuSans-57" d="M 213 4666 
L 850 4666 
L 1831 722 
L 2809 4666 
L 3519 4666 
L 4500 722 
L 5478 4666 
L 6119 4666 
L 4947 0 
L 4153 0 
L 3169 4050 
L 2175 0 
L 1381 0 
L 213 4666 
z
" transform="scale(0.015625)"/>
      <path id="DejaVuSans-52" d="M 2841 2188 
Q 3044 2119 3236 1894 
Q 3428 1669 3622 1275 
L 4263 0 
L 3584 0 
L 2988 1197 
Q 2756 1666 2539 1819 
Q 2322 1972 1947 1972 
L 1259 1972 
L 1259 0 
L 628 0 
L 628 4666 
L 2053 4666 
Q 2853 4666 3247 4331 
Q 3641 3997 3641 3322 
Q 3641 2881 3436 2590 
Q 3231 2300 2841 2188 
z
M 1259 4147 
L 1259 2491 
L 2053 2491 
Q 2509 2491 2742 2702 
Q 2975 2913 2975 3322 
Q 2975 3731 2742 3939 
Q 2509 4147 2053 4147 
L 1259 4147 
z
" transform="scale(0.015625)"/>
     </defs>
     <use xlink:href="#DejaVuSans-42"/>
     <use xlink:href="#DejaVuSans-4c" transform="translate(68.603516 0)"/>
     <use xlink:href="#DejaVuSans-57" transform="translate(115.191406 0)"/>
     <use xlink:href="#DejaVuSans-2d" transform="translate(210.068359 0)"/>
     <use xlink:href="#DejaVuSans-43" transform="translate(246.152344 0)"/>
     <use xlink:href="#DejaVuSans-54" transform="translate(315.976562 0)"/>
     <use xlink:href="#DejaVuSans-52" transform="translate(377.060547 0)"/>
     <use xlink:href="#DejaVuSans-4c" transform="translate(446.542969 0)"/>
     <use xlink:href="#DejaVuSans-2d" transform="translate(500.505859 0)"/>
     <use xlink:href="#DejaVuSans-30" transform="translate(536.589844 0)"/>
     <use xlink:href="#DejaVuSans-30" transform="translate(600.212891 0)"/>
     <use xlink:href="#DejaVuSans-31" transform="translate(663.835938 0)"/>
    </g>
    <!-- TRIAC Dimmer  (RobotDyn-style 8 A) -->
    <g transform="translate(460.504453 32.218594) scale(0.09 -0.09)">
     <defs>
      <path id="DejaVuSans-44" d="M 1259 4147 
L 1259 519 
L 2022 519 
Q 2988 519 3436 956 
Q 3884 1394 3884 2338 
Q 3884 3275 3436 3711 
Q 2988 4147 2022 4147 
L 1259 4147 
z
M 628 4666 
L 1925 4666 
Q 3281 4666 3915 4102 
Q 4550 3538 4550 2338 
Q 4550 1131 3912 565 
Q 3275 0 1925 0 
L 628 0 
L 628 4666 
z
" transform="scale(0.015625)"/>
      <path id="DejaVuSans-6d" d="M 3328 2828 
Q 3544 3216 3844 3400 
Q 4144 3584 4550 3584 
Q 5097 3584 5394 3201 
Q 5691 2819 5691 2113 
L 5691 0 
L 5113 0 
L 5113 2094 
Q 5113 2597 4934 2840 
Q 4756 3084 4391 3084 
Q 3944 3084 3684 2787 
Q 3425 2491 3425 1978 
L 3425 0 
L 2847 0 
L 2847 2094 
Q 2847 2600 2669 2842 
Q 2491 3084 2119 3084 
Q 1678 3084 1418 2786 
Q 1159 2488 1159 1978 
L 1159 0 
L 581 0 
L 581 3500 
L 1159 3500 
L 1159 2956 
Q 1356 3278 1631 3431 
Q 1906 3584 2284 3584 
Q 2666 3584 2933 3390 
Q 3200 3197 3328 2828 
z
" transform="scale(0.015625)"/>
      <path id="DejaVuSans-62" d="M 3116 1747 
Q 3116 2381 2855 2742 
Q 2594 3103 2138 3103 
Q 1681 3103 1420 2742 
Q 1159 2381 1159 1747 
Q 1159 1113 1420 752 
Q 1681 391 2138 391 
Q 2594 391 2855 752 
Q 3116 1113 3116 1747 
z
M 1159 2969 
Q 1341 3281 1617 3432 
Q 1894 3584 2278 3584 
Q 2916 3584 3314 3078 
Q 3713 2572 3713 1747 
Q 3713 922 3314 415 
Q 2916 -91 2278 -91 
Q 1894 -91 1617 61 
Q 1341 213 1159 525 
L 1159 0 
L 581 0 
L 581 4863 
L 1159 4863 
L 1159 2969 
z
" transform="scale(0.015625)"/>
      <path id="DejaVuSans-79" d="M 2059 -325 
Q 1816 -950 1584 -1140 
Q 1353 -1331 966 -1331 
L 506 -1331 
L 506 -850 
L 844 -850 
Q 1081 -850 1212 -737 
Q 1344 -625 1503 -206 
L 1606 56 
L 191 3500 
L 800 3500 
L 1894 763 
L 2988 3500 
L 3597 3500 
L 2059 -325 
z
" transform="scale(0.015625)"/>
      <path id="DejaVuSans-38" d="M 2034 2216 
Q 1584 2216 1326 1975 
Q 1069 1734 1069 1313 
Q 1069 891 1326 650 
Q 1584 409 2034 409 
Q 2484 409 2743 651 
Q 3003 894 3003 1313 
Q 3003 1734 2745 1975 
Q 2488 2216 2034 2216 
z
M 1403 2484 
Q 997 2584 770 2862 
Q 544 3141 544 3541 
Q 544 4100 942 4425 
Q 1341 4750 2034 4750 
Q 2731 4750 3128 4425 
Q 3525 4100 3525 3541 
Q 3525 3141 3298 2862 
Q 3072 2584 2669 2484 
Q 3125 2378 3379 2068 
Q 3634 1759 3634 1313 
Q 3634 634 3220 271 
Q 2806 -91 2034 -91 
Q 1263 -91 848 271 
Q 434 634 434 1313 
Q 434 1759 690 2068 
Q 947 2378 1403 2484 
z
M 1172 3481 
Q 1172 3119 1398 2916 
Q 1625 2713 2034 2713 
Q 2441 2713 2670 2916 
Q 2900 3119 2900 3481 
Q 2900 3844 2670 4047 
Q 2441 4250 2034 4250 
Q 1625 4250 1398 4047 
Q 1172 3844 1172 3481 
z
" transform="scale(0.015625)"/>
     </defs>
     <use xlink:href="#DejaVuSans-54"/>
     <use xlink:href="#DejaVuSans-52" transform="translate(61.083984 0)"/>
     <use xlink:href="#DejaVuSans-49" transform="translate(130.566406 0)"/>
     <use xlink:href="#DejaVuSans-41" transform="translate(160.058594 0)"/>
     <use xlink:href="#DejaVuSans-43" transform="translate(226.716797 0)"/>
     <use xlink:href="#DejaVuSans-20" transform="translate(296.541016 0)"/>
     <use xlink:href="#DejaVuSans-44" transform="translate(328.328125 0)"/>
     <use xlink:href="#DejaVuSans-69" transform="translate(405.330078 0)"/>
     <use xlink:href="#DejaVuSans-6d" transform="translate(433.113281 0)"/>
     <use xlink:href="#DejaVuSans-6d" transform="translate(530.525391 0)"/>
     <use xlink:href="#DejaVuSans-65" transform="translate(627.9375 0)"/>
     <use xlink:href="#DejaVuSans-72" transform="translate(689.460938 0)"/>
     <use xlink:href="#DejaVuSans-20" transform="translate(730.574219 0)"/>
     <use xlink:href="#DejaVuSans-20" transform="translate(762.361328 0)"/>
     <use xlink:href="#DejaVuSans-28" transform="translate(794.148438 0)"/>
     <use xlink:href="#DejaVuSans-52" transform="translate(833.162109 0)"/>
     <use xlink:href="#DejaVuSans-6f" transform="translate(898.144531 0)"/>
     <use xlink:href="#DejaVuSans-62" transform="translate(959.326172 0)"/>
     <use xlink:href="#DejaVuSans-6f" transform="translate(1022.802734 0)"/>
     <use xlink:href="#DejaVuSans-74" transform="translate(1083.984375 0)"/>
     <use xlink:href="#DejaVuSans-44" transform="translate(1123.193359 0)"/>
     <use xlink:href="#DejaVuSans-79" transform="translate(1200.195312 0)"/>
     <use xlink:href="#DejaVuSans-6e" transform="translate(1259.375 0)"/>
     <use xlink:href="#DejaVuSans-2d" transform="translate(1322.753906 0)"/>
     <use xlink:href="#DejaVuSans-73" transform="translate(1358.837891 0)"/>
     <use xlink:href="#DejaVuSans-74" transform="translate(1410.9375 0)"/>
     <use xlink:href="#DejaVuSans-79" transform="translate(1450.146484 0)"/>
     <use xlink:href="#DejaVuSans-6c" transform="translate(1509.326172 0)"/>
     <use xlink:href="#DejaVuSans-65" transform="translate(1537.109375 0)"/>
     <use xlink:href="#DejaVuSans-20" transform="translate(1598.632812 0)"/>
     <use xlink:href="#DejaVuSans-38" transform="translate(1630.419922 0)"/>
     <use xlink:href="#DejaVuSans-20" transform="translate(1694.042969 0)"/>
     <use xlink:href="#DejaVuSans-41" transform="translate(1725.830078 0)"/>
     <use xlink:href="#DejaVuSans-29" transform="translate(1794.238281 0)"/>
    </g>
   </g>
   <g id="text_4">
    <!-- FERR-001 -->
    <g style="fill: #888888" transform="translate(667.695 48.91625) scale(0.08 -0.08)">
     <defs>
      <path id="DejaVuSans-45" d="M 628 4666 
L 3578 4666 
L 3578 4134 
L 1259 4134 
L 1259 2753 
L 3481 2753 
L 3481 2222 
L 1259 2222 
L 1259 531 
L 3634 531 
L 3634 0 
L 628 0 
L 628 4666 
z
" transform="scale(0.015625)"/>
     </defs>
     <use xlink:href="#DejaVuSans-46"/>
     <use xlink:href="#DejaVuSans-45" transform="translate(57.519531 0)"/>
     <use xlink:href="#DejaVuSans-52" transform="translate(120.703125 0)"/>
     <use xlink:href="#DejaVuSans-52" transform="translate(190.185547 0)"/>
     <use xlink:href="#DejaVuSans-2d" transform="translate(255.667969 0)"/>
     <use xlink:href="#DejaVuSans-30" transform="translate(291.751953 0)"/>
     <use xlink:href="#DejaVuSans-30" transform="translate(355.375 0)"/>
     <use xlink:href="#DejaVuSans-31" transform="translate(418.998047 0)"/>
    </g>
    <!-- (snap-on) -->
    <g style="fill: #888888" transform="translate(667.76875 56.65875) scale(0.08 -0.08)">
     <use xlink:href="#DejaVuSans-28"/>
     <use xlink:href="#DejaVuSans-73" transform="translate(39.013672 0)"/>
     <use xlink:href="#DejaVuSans-6e" transform="translate(91.113281 0)"/>
     <use xlink:href="#DejaVuSans-61" transform="translate(154.492188 0)"/>
     <use xlink:href="#DejaVuSans-70" transform="translate(215.771484 0)"/>
     <use xlink:href="#DejaVuSans-2d" transform="translate(279.248047 0)"/>
     <use xlink:href="#DejaVuSans-6f" transform="translate(317.207031 0)"/>
     <use xlink:href="#DejaVuSans-6e" transform="translate(378.388672 0)"/>
     <use xlink:href="#DejaVuSans-29" transform="translate(441.767578 0)"/>
    </g>
   </g>
   <g id="text_5">
    <!-- BLW-001 -->
    <g transform="translate(742.548437 26.665938) scale(0.1 -0.1)">
     <use xlink:href="#DejaVuSans-42"/>
     <use xlink:href="#DejaVuSans-4c" transform="translate(68.603516 0)"/>
     <use xlink:href="#DejaVuSans-57" transform="translate(115.191406 0)"/>
     <use xlink:href="#DejaVuSans-2d" transform="translate(210.068359 0)"/>
     <use xlink:href="#DejaVuSans-30" transform="translate(246.152344 0)"/>
     <use xlink:href="#DejaVuSans-30" transform="translate(309.775391 0)"/>
     <use xlink:href="#DejaVuSans-31" transform="translate(373.398438 0)"/>
    </g>
    <!-- Universal AC -->
    <g transform="translate(732.620312 36.344063) scale(0.1 -0.1)">
     <defs>
      <path id="DejaVuSans-55" d="M 556 4666 
L 1191 4666 
L 1191 1831 
Q 1191 1081 1462 751 
Q 1734 422 2344 422 
Q 2950 422 3222 751 
Q 3494 1081 3494 1831 
L 3494 4666 
L 4128 4666 
L 4128 1753 
Q 4128 841 3676 375 
Q 3225 -91 2344 -91 
Q 1459 -91 1007 375 
Q 556 841 556 1753 
L 556 4666 
z
" transform="scale(0.015625)"/>
      <path id="DejaVuSans-76" d="M 191 3500 
L 800 3500 
L 1894 563 
L 2988 3500 
L 3597 3500 
L 2284 0 
L 1503 0 
L 191 3500 
z
" transform="scale(0.015625)"/>
     </defs>
     <use xlink:href="#DejaVuSans-55"/>
     <use xlink:href="#DejaVuSans-6e" transform="translate(73.193359 0)"/>
     <use xlink:href="#DejaVuSans-69" transform="translate(136.572266 0)"/>
     <use xlink:href="#DejaVuSans-76" transform="translate(164.355469 0)"/>
     <use xlink:href="#DejaVuSans-65" transform="translate(223.535156 0)"/>
     <use xlink:href="#DejaVuSans-72" transform="translate(285.058594 0)"/>
     <use xlink:href="#DejaVuSans-73" transform="translate(326.171875 0)"/>
     <use xlink:href="#DejaVuSans-61" transform="translate(378.271484 0)"/>
     <use xlink:href="#DejaVuSans-6c" transform="translate(439.550781 0)"/>
     <use xlink:href="#DejaVuSans-20" transform="translate(467.333984 0)"/>
     <use xlink:href="#DejaVuSans-41" transform="translate(499.121094 0)"/>
     <use xlink:href="#DejaVuSans-43" transform="translate(565.779297 0)"/>
    </g>
    <!-- bypass-cooled -->
    <g transform="translate(728.507031 46.022188) scale(0.1 -0.1)">
     <defs>
      <path id="DejaVuSans-64" d="M 2906 2969 
L 2906 4863 
L 3481 4863 
L 3481 0 
L 2906 0 
L 2906 525 
Q 2725 213 2448 61 
Q 2172 -91 1784 -91 
Q 1150 -91 751 415 
Q 353 922 353 1747 
Q 353 2572 751 3078 
Q 1150 3584 1784 3584 
Q 2172 3584 2448 3432 
Q 2725 3281 2906 2969 
z
M 947 1747 
Q 947 1113 1208 752 
Q 1469 391 1925 391 
Q 2381 391 2643 752 
Q 2906 1113 2906 1747 
Q 2906 2381 2643 2742 
Q 2381 3103 1925 3103 
Q 1469 3103 1208 2742 
Q 947 2381 947 1747 
z
" transform="scale(0.015625)"/>
     </defs>
     <use xlink:href="#DejaVuSans-62"/>
     <use xlink:href="#DejaVuSans-79" transform="translate(63.476562 0)"/>
     <use xlink:href="#DejaVuSans-70" transform="translate(122.65625 0)"/>
     <use xlink:href="#DejaVuSans-61" transform="translate(186.132812 0)"/>
     <use xlink:href="#DejaVuSans-73" transform="translate(247.412109 0)"/>
     <use xlink:href="#DejaVuSans-73" transform="translate(299.511719 0)"/>
     <use xlink:href="#DejaVuSans-2d" transform="translate(351.611328 0)"/>
     <use xlink:href="#DejaVuSans-63" transform="translate(387.695312 0)"/>
     <use xlink:href="#DejaVuSans-6f" transform="translate(442.675781 0)"/>
     <use xlink:href="#DejaVuSans-6f" transform="translate(503.857422 0)"/>
     <use xlink:href="#DejaVuSans-6c" transform="translate(565.039062 0)"/>
     <use xlink:href="#DejaVuSans-65" transform="translate(592.822266 0)"/>
     <use xlink:href="#DejaVuSans-64" transform="translate(654.345703 0)"/>
    </g>
    <!-- vacuum motor -->
    <g transform="translate(727.825781 55.700313) scale(0.1 -0.1)">
     <defs>
      <path id="DejaVuSans-75" d="M 544 1381 
L 544 3500 
L 1119 3500 
L 1119 1403 
Q 1119 906 1312 657 
Q 1506 409 1894 409 
Q 2359 409 2629 706 
Q 2900 1003 2900 1516 
L 2900 3500 
L 3475 3500 
L 3475 0 
L 2900 0 
L 2900 538 
Q 2691 219 2414 64 
Q 2138 -91 1772 -91 
Q 1169 -91 856 284 
Q 544 659 544 1381 
z
M 1991 3584 
L 1991 3584 
z
" transform="scale(0.015625)"/>
     </defs>
     <use xlink:href="#DejaVuSans-76"/>
     <use xlink:href="#DejaVuSans-61" transform="translate(59.179688 0)"/>
     <use xlink:href="#DejaVuSans-63" transform="translate(120.458984 0)"/>
     <use xlink:href="#DejaVuSans-75" transform="translate(175.439453 0)"/>
     <use xlink:href="#DejaVuSans-75" transform="translate(238.818359 0)"/>
     <use xlink:href="#DejaVuSans-6d" transform="translate(302.197266 0)"/>
     <use xlink:href="#DejaVuSans-20" transform="translate(399.609375 0)"/>
     <use xlink:href="#DejaVuSans-6d" transform="translate(431.396484 0)"/>
     <use xlink:href="#DejaVuSans-6f" transform="translate(528.808594 0)"/>
     <use xlink:href="#DejaVuSans-74" transform="translate(589.990234 0)"/>
     <use xlink:href="#DejaVuSans-6f" transform="translate(629.199219 0)"/>
     <use xlink:href="#DejaVuSans-72" transform="translate(690.380859 0)"/>
    </g>
   </g>
   <g id="text_6">
    <!-- BOND-001 -->
    <g style="fill: #1f9d3a" transform="translate(829.82625 189.31625) scale(0.08 -0.08)">
     <defs>
      <path id="DejaVuSans-4f" d="M 2522 4238 
Q 1834 4238 1429 3725 
Q 1025 3213 1025 2328 
Q 1025 1447 1429 934 
Q 1834 422 2522 422 
Q 3209 422 3611 934 
Q 4013 1447 4013 2328 
Q 4013 3213 3611 3725 
Q 3209 4238 2522 4238 
z
M 2522 4750 
Q 3503 4750 4090 4092 
Q 4678 3434 4678 2328 
Q 4678 1225 4090 567 
Q 3503 -91 2522 -91 
Q 1538 -91 948 565 
Q 359 1222 359 2328 
Q 359 3434 948 4092 
Q 1538 4750 2522 4750 
z
" transform="scale(0.015625)"/>
      <path id="DejaVuSans-4e" d="M 628 4666 
L 1478 4666 
L 3547 763 
L 3547 4666 
L 4159 4666 
L 4159 0 
L 3309 0 
L 1241 3903 
L 1241 0 
L 628 0 
L 628 4666 
z
" transform="scale(0.015625)"/>
     </defs>
     <use xlink:href="#DejaVuSans-42"/>
     <use xlink:href="#DejaVuSans-4f" transform="translate(66.853516 0)"/>
     <use xlink:href="#DejaVuSans-4e" transform="translate(145.564453 0)"/>
     <use xlink:href="#DejaVuSans-44" transform="translate(220.369141 0)"/>
     <use xlink:href="#DejaVuSans-2d" transform="translate(297.371094 0)"/>
     <use xlink:href="#DejaVuSans-30" transform="translate(333.455078 0)"/>
     <use xlink:href="#DejaVuSans-30" transform="translate(397.078125 0)"/>
     <use xlink:href="#DejaVuSans-31" transform="translate(460.701172 0)"/>
    </g>
    <!-- frame -&gt; chassis earth -->
    <g style="fill: #1f9d3a" transform="translate(805.121875 197.05875) scale(0.08 -0.08)">
     <defs>
      <path id="DejaVuSans-3e" d="M 678 3150 
L 678 3719 
L 4684 2266 
L 4684 1747 
L 678 294 
L 678 863 
L 3897 2003 
L 678 3150 
z
" transform="scale(0.015625)"/>
      <path id="DejaVuSans-68" d="M 3513 2113 
L 3513 0 
L 2938 0 
L 2938 2094 
Q 2938 2591 2744 2837 
Q 2550 3084 2163 3084 
Q 1697 3084 1428 2787 
Q 1159 2491 1159 1978 
L 1159 0 
L 581 0 
L 581 4863 
L 1159 4863 
L 1159 2956 
Q 1366 3272 1645 3428 
Q 1925 3584 2291 3584 
Q 2894 3584 3203 3211 
Q 3513 2838 3513 2113 
z
" transform="scale(0.015625)"/>
     </defs>
     <use xlink:href="#DejaVuSans-66"/>
     <use xlink:href="#DejaVuSans-72" transform="translate(35.205078 0)"/>
     <use xlink:href="#DejaVuSans-61" transform="translate(76.318359 0)"/>
     <use xlink:href="#DejaVuSans-6d" transform="translate(137.597656 0)"/>
     <use xlink:href="#DejaVuSans-65" transform="translate(235.009766 0)"/>
     <use xlink:href="#DejaVuSans-20" transform="translate(296.533203 0)"/>
     <use xlink:href="#DejaVuSans-2d" transform="translate(328.320312 0)"/>
     <use xlink:href="#DejaVuSans-3e" transform="translate(364.404297 0)"/>
     <use xlink:href="#DejaVuSans-20" transform="translate(448.193359 0)"/>
     <use xlink:href="#DejaVuSans-63" transform="translate(479.980469 0)"/>
     <use xlink:href="#DejaVuSans-68" transform="translate(534.960938 0)"/>
     <use xlink:href="#DejaVuSans-61" transform="translate(598.339844 0)"/>
     <use xlink:href="#DejaVuSans-73" transform="translate(659.619141 0)"/>
     <use xlink:href="#DejaVuSans-73" transform="translate(711.71875 0)"/>
     <use xlink:href="#DejaVuSans-69" transform="translate(763.818359 0)"/>
     <use xlink:href="#DejaVuSans-73" transform="translate(791.601562 0)"/>
     <use xlink:href="#DejaVuSans-20" transform="translate(843.701172 0)"/>
     <use xlink:href="#DejaVuSans-65" transform="translate(875.488281 0)"/>
     <use xlink:href="#DejaVuSans-61" transform="translate(937.011719 0)"/>
     <use xlink:href="#DejaVuSans-72" transform="translate(998.291016 0)"/>
     <use xlink:href="#DejaVuSans-74" transform="translate(1039.404297 0)"/>
     <use xlink:href="#DejaVuSans-68" transform="translate(1078.613281 0)"/>
    </g>
   </g>
   <g id="text_7">
    <!-- ESP32 -->
    <g transform="translate(276.860156 432.397969) scale(0.09 -0.09)">
     <defs>
      <path id="DejaVuSans-53" d="M 3425 4513 
L 3425 3897 
Q 3066 4069 2747 4153 
Q 2428 4238 2131 4238 
Q 1616 4238 1336 4038 
Q 1056 3838 1056 3469 
Q 1056 3159 1242 3001 
Q 1428 2844 1947 2747 
L 2328 2669 
Q 3034 2534 3370 2195 
Q 3706 1856 3706 1288 
Q 3706 609 3251 259 
Q 2797 -91 1919 -91 
Q 1588 -91 1214 -16 
Q 841 59 441 206 
L 441 856 
Q 825 641 1194 531 
Q 1563 422 1919 422 
Q 2459 422 2753 634 
Q 3047 847 3047 1241 
Q 3047 1584 2836 1778 
Q 2625 1972 2144 2069 
L 1759 2144 
Q 1053 2284 737 2584 
Q 422 2884 422 3419 
Q 422 4038 858 4394 
Q 1294 4750 2059 4750 
Q 2388 4750 2728 4690 
Q 3069 4631 3425 4513 
z
" transform="scale(0.015625)"/>
      <path id="DejaVuSans-50" d="M 1259 4147 
L 1259 2394 
L 2053 2394 
Q 2494 2394 2734 2622 
Q 2975 2850 2975 3272 
Q 2975 3691 2734 3919 
Q 2494 4147 2053 4147 
L 1259 4147 
z
M 628 4666 
L 2053 4666 
Q 2838 4666 3239 4311 
Q 3641 3956 3641 3272 
Q 3641 2581 3239 2228 
Q 2838 1875 2053 1875 
L 1259 1875 
L 1259 0 
L 628 0 
L 628 4666 
z
" transform="scale(0.015625)"/>
      <path id="DejaVuSans-32" d="M 1228 531 
L 3431 531 
L 3431 0 
L 469 0 
L 469 531 
Q 828 903 1448 1529 
Q 2069 2156 2228 2338 
Q 2531 2678 2651 2914 
Q 2772 3150 2772 3378 
Q 2772 3750 2511 3984 
Q 2250 4219 1831 4219 
Q 1534 4219 1204 4116 
Q 875 4013 500 3803 
L 500 4441 
Q 881 4594 1212 4672 
Q 1544 4750 1819 4750 
Q 2544 4750 2975 4387 
Q 3406 4025 3406 3419 
Q 3406 3131 3298 2873 
Q 3191 2616 2906 2266 
Q 2828 2175 2409 1742 
Q 1991 1309 1228 531 
z
" transform="scale(0.015625)"/>
     </defs>
     <use xlink:href="#DejaVuSans-45"/>
     <use xlink:href="#DejaVuSans-53" transform="translate(63.183594 0)"/>
     <use xlink:href="#DejaVuSans-50" transform="translate(126.660156 0)"/>
     <use xlink:href="#DejaVuSans-33" transform="translate(186.962891 0)"/>
     <use xlink:href="#DejaVuSans-32" transform="translate(250.585938 0)"/>
    </g>
    <!-- GPIO 23 (PWM) -->
    <g transform="translate(256.786641 441.108281) scale(0.09 -0.09)">
     <defs>
      <path id="DejaVuSans-47" d="M 3809 666 
L 3809 1919 
L 2778 1919 
L 2778 2438 
L 4434 2438 
L 4434 434 
Q 4069 175 3628 42 
Q 3188 -91 2688 -91 
Q 1594 -91 976 548 
Q 359 1188 359 2328 
Q 359 3472 976 4111 
Q 1594 4750 2688 4750 
Q 3144 4750 3555 4637 
Q 3966 4525 4313 4306 
L 4313 3634 
Q 3963 3931 3569 4081 
Q 3175 4231 2741 4231 
Q 1884 4231 1454 3753 
Q 1025 3275 1025 2328 
Q 1025 1384 1454 906 
Q 1884 428 2741 428 
Q 3075 428 3337 486 
Q 3600 544 3809 666 
z
" transform="scale(0.015625)"/>
     </defs>
     <use xlink:href="#DejaVuSans-47"/>
     <use xlink:href="#DejaVuSans-50" transform="translate(77.490234 0)"/>
     <use xlink:href="#DejaVuSans-49" transform="translate(137.792969 0)"/>
     <use xlink:href="#DejaVuSans-4f" transform="translate(167.285156 0)"/>
     <use xlink:href="#DejaVuSans-20" transform="translate(245.996094 0)"/>
     <use xlink:href="#DejaVuSans-32" transform="translate(277.783203 0)"/>
     <use xlink:href="#DejaVuSans-33" transform="translate(341.40625 0)"/>
     <use xlink:href="#DejaVuSans-20" transform="translate(405.029297 0)"/>
     <use xlink:href="#DejaVuSans-28" transform="translate(436.816406 0)"/>
     <use xlink:href="#DejaVuSans-50" transform="translate(475.830078 0)"/>
     <use xlink:href="#DejaVuSans-57" transform="translate(536.132812 0)"/>
     <use xlink:href="#DejaVuSans-4d" transform="translate(635.009766 0)"/>
     <use xlink:href="#DejaVuSans-29" transform="translate(721.289062 0)"/>
    </g>
    <!-- GPIO  4 (ZC IRQ) -->
    <g transform="translate(253.613438 449.818594) scale(0.09 -0.09)">
     <defs>
      <path id="DejaVuSans-34" d="M 2419 4116 
L 825 1625 
L 2419 1625 
L 2419 4116 
z
M 2253 4666 
L 3047 4666 
L 3047 1625 
L 3713 1625 
L 3713 1100 
L 3047 1100 
L 3047 0 
L 2419 0 
L 2419 1100 
L 313 1100 
L 313 1709 
L 2253 4666 
z
" transform="scale(0.015625)"/>
      <path id="DejaVuSans-51" d="M 2522 4238 
Q 1834 4238 1429 3725 
Q 1025 3213 1025 2328 
Q 1025 1447 1429 934 
Q 1834 422 2522 422 
Q 3209 422 3611 934 
Q 4013 1447 4013 2328 
Q 4013 3213 3611 3725 
Q 3209 4238 2522 4238 
z
M 3406 84 
L 4238 -825 
L 3475 -825 
L 2784 -78 
Q 2681 -84 2626 -87 
Q 2572 -91 2522 -91 
Q 1538 -91 948 567 
Q 359 1225 359 2328 
Q 359 3434 948 4092 
Q 1538 4750 2522 4750 
Q 3503 4750 4090 4092 
Q 4678 3434 4678 2328 
Q 4678 1516 4351 937 
Q 4025 359 3406 84 
z
" transform="scale(0.015625)"/>
     </defs>
     <use xlink:href="#DejaVuSans-47"/>
     <use xlink:href="#DejaVuSans-50" transform="translate(77.490234 0)"/>
     <use xlink:href="#DejaVuSans-49" transform="translate(137.792969 0)"/>
     <use xlink:href="#DejaVuSans-4f" transform="translate(167.285156 0)"/>
     <use xlink:href="#DejaVuSans-20" transform="translate(245.996094 0)"/>
     <use xlink:href="#DejaVuSans-20" transform="translate(277.783203 0)"/>
     <use xlink:href="#DejaVuSans-34" transform="translate(309.570312 0)"/>
     <use xlink:href="#DejaVuSans-20" transform="translate(373.193359 0)"/>
     <use xlink:href="#DejaVuSans-28" transform="translate(404.980469 0)"/>
     <use xlink:href="#DejaVuSans-5a" transform="translate(443.994141 0)"/>
     <use xlink:href="#DejaVuSans-43" transform="translate(512.5 0)"/>
     <use xlink:href="#DejaVuSans-20" transform="translate(582.324219 0)"/>
     <use xlink:href="#DejaVuSans-49" transform="translate(614.111328 0)"/>
     <use xlink:href="#DejaVuSans-52" transform="translate(643.603516 0)"/>
     <use xlink:href="#DejaVuSans-51" transform="translate(713.085938 0)"/>
     <use xlink:href="#DejaVuSans-29" transform="translate(791.796875 0)"/>
    </g>
    <!-- GPIO 34 (ADC) -->
    <g transform="translate(258.146484 458.528906) scale(0.09 -0.09)">
     <use xlink:href="#DejaVuSans-47"/>
     <use xlink:href="#DejaVuSans-50" transform="translate(77.490234 0)"/>
     <use xlink:href="#DejaVuSans-49" transform="translate(137.792969 0)"/>
     <use xlink:href="#DejaVuSans-4f" transform="translate(167.285156 0)"/>
     <use xlink:href="#DejaVuSans-20" transform="translate(245.996094 0)"/>
     <use xlink:href="#DejaVuSans-33" transform="translate(277.783203 0)"/>
     <use xlink:href="#DejaVuSans-34" transform="translate(341.40625 0)"/>
     <use xlink:href="#DejaVuSans-20" transform="translate(405.029297 0)"/>
     <use xlink:href="#DejaVuSans-28" transform="translate(436.816406 0)"/>
     <use xlink:href="#DejaVuSans-41" transform="translate(475.830078 0)"/>
     <use xlink:href="#DejaVuSans-44" transform="translate(544.238281 0)"/>
     <use xlink:href="#DejaVuSans-43" transform="translate(621.240234 0)"/>
     <use xlink:href="#DejaVuSans-29" transform="translate(691.064453 0)"/>
    </g>
   </g>
   <g id="text_8">
    <!-- R-BURDEN -->
    <g transform="translate(249.378125 221.300313) scale(0.1 -0.1)">
     <use xlink:href="#DejaVuSans-52"/>
     <use xlink:href="#DejaVuSans-2d" transform="translate(65.482422 0)"/>
     <use xlink:href="#DejaVuSans-42" transform="translate(97.941406 0)"/>
     <use xlink:href="#DejaVuSans-55" transform="translate(166.544922 0)"/>
     <use xlink:href="#DejaVuSans-52" transform="translate(239.738281 0)"/>
     <use xlink:href="#DejaVuSans-44" transform="translate(309.220703 0)"/>
     <use xlink:href="#DejaVuSans-45" transform="translate(386.222656 0)"/>
     <use xlink:href="#DejaVuSans-4e" transform="translate(449.40625 0)"/>
    </g>
    <!-- 62 ohm -->
    <g transform="translate(263.7 230.978438) scale(0.1 -0.1)">
     <defs>
      <path id="DejaVuSans-36" d="M 2113 2584 
Q 1688 2584 1439 2293 
Q 1191 2003 1191 1497 
Q 1191 994 1439 701 
Q 1688 409 2113 409 
Q 2538 409 2786 701 
Q 3034 994 3034 1497 
Q 3034 2003 2786 2293 
Q 2538 2584 2113 2584 
z
M 3366 4563 
L 3366 3988 
Q 3128 4100 2886 4159 
Q 2644 4219 2406 4219 
Q 1781 4219 1451 3797 
Q 1122 3375 1075 2522 
Q 1259 2794 1537 2939 
Q 1816 3084 2150 3084 
Q 2853 3084 3261 2657 
Q 3669 2231 3669 1497 
Q 3669 778 3244 343 
Q 2819 -91 2113 -91 
Q 1303 -91 875 529 
Q 447 1150 447 2328 
Q 447 3434 972 4092 
Q 1497 4750 2381 4750 
Q 2619 4750 2861 4703 
Q 3103 4656 3366 4563 
z
" transform="scale(0.015625)"/>
     </defs>
     <use xlink:href="#DejaVuSans-36"/>
     <use xlink:href="#DejaVuSans-32" transform="translate(63.623047 0)"/>
     <use xlink:href="#DejaVuSans-20" transform="translate(127.246094 0)"/>
     <use xlink:href="#DejaVuSans-6f" transform="translate(159.033203 0)"/>
     <use xlink:href="#DejaVuSans-68" transform="translate(220.214844 0)"/>
     <use xlink:href="#DejaVuSans-6d" transform="translate(283.59375 0)"/>
    </g>
   </g>
   <g id="text_9">
    <!-- (burden + bias -->
    <g transform="translate(523.975 203.71625) scale(0.08 -0.08)">
     <use xlink:href="#DejaVuSans-28"/>
     <use xlink:href="#DejaVuSans-62" transform="translate(39.013672 0)"/>
     <use xlink:href="#DejaVuSans-75" transform="translate(102.490234 0)"/>
     <use xlink:href="#DejaVuSans-72" transform="translate(165.869141 0)"/>
     <use xlink:href="#DejaVuSans-64" transform="translate(205.232422 0)"/>
     <use xlink:href="#DejaVuSans-65" transform="translate(268.708984 0)"/>
     <use xlink:href="#DejaVuSans-6e" transform="translate(330.232422 0)"/>
     <use xlink:href="#DejaVuSans-20" transform="translate(393.611328 0)"/>
     <use xlink:href="#DejaVuSans-2b" transform="translate(425.398438 0)"/>
     <use xlink:href="#DejaVuSans-20" transform="translate(509.1875 0)"/>
     <use xlink:href="#DejaVuSans-62" transform="translate(540.974609 0)"/>
     <use xlink:href="#DejaVuSans-69" transform="translate(604.451172 0)"/>
     <use xlink:href="#DejaVuSans-61" transform="translate(632.234375 0)"/>
     <use xlink:href="#DejaVuSans-73" transform="translate(693.513672 0)"/>
    </g>
    <!--  to ADC mid-rail) -->
    <g transform="translate(520.4925 211.45875) scale(0.08 -0.08)">
     <use xlink:href="#DejaVuSans-20"/>
     <use xlink:href="#DejaVuSans-74" transform="translate(31.787109 0)"/>
     <use xlink:href="#DejaVuSans-6f" transform="translate(70.996094 0)"/>
     <use xlink:href="#DejaVuSans-20" transform="translate(132.177734 0)"/>
     <use xlink:href="#DejaVuSans-41" transform="translate(163.964844 0)"/>
     <use xlink:href="#DejaVuSans-44" transform="translate(232.373047 0)"/>
     <use xlink:href="#DejaVuSans-43" transform="translate(309.375 0)"/>
     <use xlink:href="#DejaVuSans-20" transform="translate(379.199219 0)"/>
     <use xlink:href="#DejaVuSans-6d" transform="translate(410.986328 0)"/>
     <use xlink:href="#DejaVuSans-69" transform="translate(508.398438 0)"/>
     <use xlink:href="#DejaVuSans-64" transform="translate(536.181641 0)"/>
     <use xlink:href="#DejaVuSans-2d" transform="translate(599.658203 0)"/>
     <use xlink:href="#DejaVuSans-72" transform="translate(635.742188 0)"/>
     <use xlink:href="#DejaVuSans-61" transform="translate(676.855469 0)"/>
     <use xlink:href="#DejaVuSans-69" transform="translate(738.134766 0)"/>
     <use xlink:href="#DejaVuSans-6c" transform="translate(765.917969 0)"/>
     <use xlink:href="#DejaVuSans-29" transform="translate(793.701172 0)"/>
    </g>
   </g>
   <g id="text_10">
    <!-- Domain 2 - Blower Circuit (120 V AC, DR-011) -->
    <g transform="translate(469.163437 612.397969) scale(0.09 -0.09)">
     <defs>
      <path id="DejaVuSans-77" d="M 269 3500 
L 844 3500 
L 1563 769 
L 2278 3500 
L 2956 3500 
L 3675 769 
L 4391 3500 
L 4966 3500 
L 4050 0 
L 3372 0 
L 2619 2869 
L 1863 0 
L 1184 0 
L 269 3500 
z
" transform="scale(0.015625)"/>
      <path id="DejaVuSans-56" d="M 1831 0 
L 50 4666 
L 709 4666 
L 2188 738 
L 3669 4666 
L 4325 4666 
L 2547 0 
L 1831 0 
z
" transform="scale(0.015625)"/>
      <path id="DejaVuSans-2c" d="M 750 794 
L 1409 794 
L 1409 256 
L 897 -744 
L 494 -744 
L 750 256 
L 750 794 
z
" transform="scale(0.015625)"/>
     </defs>
     <use xlink:href="#DejaVuSans-44"/>
     <use xlink:href="#DejaVuSans-6f" transform="translate(77.001953 0)"/>
     <use xlink:href="#DejaVuSans-6d" transform="translate(138.183594 0)"/>
     <use xlink:href="#DejaVuSans-61" transform="translate(235.595703 0)"/>
     <use xlink:href="#DejaVuSans-69" transform="translate(296.875 0)"/>
     <use xlink:href="#DejaVuSans-6e" transform="translate(324.658203 0)"/>
     <use xlink:href="#DejaVuSans-20" transform="translate(388.037109 0)"/>
     <use xlink:href="#DejaVuSans-32" transform="translate(419.824219 0)"/>
     <use xlink:href="#DejaVuSans-20" transform="translate(483.447266 0)"/>
     <use xlink:href="#DejaVuSans-2d" transform="translate(515.234375 0)"/>
     <use xlink:href="#DejaVuSans-20" transform="translate(551.318359 0)"/>
     <use xlink:href="#DejaVuSans-42" transform="translate(583.105469 0)"/>
     <use xlink:href="#DejaVuSans-6c" transform="translate(651.708984 0)"/>
     <use xlink:href="#DejaVuSans-6f" transform="translate(679.492188 0)"/>
     <use xlink:href="#DejaVuSans-77" transform="translate(740.673828 0)"/>
     <use xlink:href="#DejaVuSans-65" transform="translate(822.460938 0)"/>
     <use xlink:href="#DejaVuSans-72" transform="translate(883.984375 0)"/>
     <use xlink:href="#DejaVuSans-20" transform="translate(925.097656 0)"/>
     <use xlink:href="#DejaVuSans-43" transform="translate(956.884766 0)"/>
     <use xlink:href="#DejaVuSans-69" transform="translate(1026.708984 0)"/>
     <use xlink:href="#DejaVuSans-72" transform="translate(1054.492188 0)"/>
     <use xlink:href="#DejaVuSans-63" transform="translate(1093.355469 0)"/>
     <use xlink:href="#DejaVuSans-75" transform="translate(1148.335938 0)"/>
     <use xlink:href="#DejaVuSans-69" transform="translate(1211.714844 0)"/>
     <use xlink:href="#DejaVuSans-74" transform="translate(1239.498047 0)"/>
     <use xlink:href="#DejaVuSans-20" transform="translate(1278.707031 0)"/>
     <use xlink:href="#DejaVuSans-28" transform="translate(1310.494141 0)"/>
     <use xlink:href="#DejaVuSans-31" transform="translate(1349.507812 0)"/>
     <use xlink:href="#DejaVuSans-32" transform="translate(1413.130859 0)"/>
     <use xlink:href="#DejaVuSans-30" transform="translate(1476.753906 0)"/>
     <use xlink:href="#DejaVuSans-20" transform="translate(1540.376953 0)"/>
     <use xlink:href="#DejaVuSans-56" transform="translate(1572.164062 0)"/>
     <use xlink:href="#DejaVuSans-20" transform="translate(1640.572266 0)"/>
     <use xlink:href="#DejaVuSans-41" transform="translate(1672.359375 0)"/>
     <use xlink:href="#DejaVuSans-43" transform="translate(1739.017578 0)"/>
     <use xlink:href="#DejaVuSans-2c" transform="translate(1808.841797 0)"/>
     <use xlink:href="#DejaVuSans-20" transform="translate(1840.628906 0)"/>
     <use xlink:href="#DejaVuSans-44" transform="translate(1872.416016 0)"/>
     <use xlink:href="#DejaVuSans-52" transform="translate(1949.417969 0)"/>
     <use xlink:href="#DejaVuSans-2d" transform="translate(2014.900391 0)"/>
     <use xlink:href="#DejaVuSans-30" transform="translate(2050.984375 0)"/>
     <use xlink:href="#DejaVuSans-31" transform="translate(2114.607422 0)"/>
     <use xlink:href="#DejaVuSans-31" transform="translate(2178.230469 0)"/>
     <use xlink:href="#DejaVuSans-29" transform="translate(2241.853516 0)"/>
    </g>
    <!-- Phase-angle TRIAC control with hardware ZC detect. -->
    <g transform="translate(453.942187 621.108281) scale(0.09 -0.09)">
     <defs>
      <path id="DejaVuSans-67" d="M 2906 1791 
Q 2906 2416 2648 2759 
Q 2391 3103 1925 3103 
Q 1463 3103 1205 2759 
Q 947 2416 947 1791 
Q 947 1169 1205 825 
Q 1463 481 1925 481 
Q 2391 481 2648 825 
Q 2906 1169 2906 1791 
z
M 3481 434 
Q 3481 -459 3084 -895 
Q 2688 -1331 1869 -1331 
Q 1566 -1331 1297 -1286 
Q 1028 -1241 775 -1147 
L 775 -588 
Q 1028 -725 1275 -790 
Q 1522 -856 1778 -856 
Q 2344 -856 2625 -561 
Q 2906 -266 2906 331 
L 2906 616 
Q 2728 306 2450 153 
Q 2172 0 1784 0 
Q 1141 0 747 490 
Q 353 981 353 1791 
Q 353 2603 747 3093 
Q 1141 3584 1784 3584 
Q 2172 3584 2450 3431 
Q 2728 3278 2906 2969 
L 2906 3500 
L 3481 3500 
L 3481 434 
z
" transform="scale(0.015625)"/>
      <path id="DejaVuSans-2e" d="M 684 794 
L 1344 794 
L 1344 0 
L 684 0 
L 684 794 
z
" transform="scale(0.015625)"/>
     </defs>
     <use xlink:href="#DejaVuSans-50"/>
     <use xlink:href="#DejaVuSans-68" transform="translate(60.302734 0)"/>
     <use xlink:href="#DejaVuSans-61" transform="translate(123.681641 0)"/>
     <use xlink:href="#DejaVuSans-73" transform="translate(184.960938 0)"/>
     <use xlink:href="#DejaVuSans-65" transform="translate(237.060547 0)"/>
     <use xlink:href="#DejaVuSans-2d" transform="translate(298.583984 0)"/>
     <use xlink:href="#DejaVuSans-61" transform="translate(334.667969 0)"/>
     <use xlink:href="#DejaVuSans-6e" transform="translate(395.947266 0)"/>
     <use xlink:href="#DejaVuSans-67" transform="translate(459.326172 0)"/>
     <use xlink:href="#DejaVuSans-6c" transform="translate(522.802734 0)"/>
     <use xlink:href="#DejaVuSans-65" transform="translate(550.585938 0)"/>
     <use xlink:href="#DejaVuSans-20" transform="translate(612.109375 0)"/>
     <use xlink:href="#DejaVuSans-54" transform="translate(643.896484 0)"/>
     <use xlink:href="#DejaVuSans-52" transform="translate(704.980469 0)"/>
     <use xlink:href="#DejaVuSans-49" transform="translate(774.462891 0)"/>
     <use xlink:href="#DejaVuSans-41" transform="translate(803.955078 0)"/>
     <use xlink:href="#DejaVuSans-43" transform="translate(870.613281 0)"/>
     <use xlink:href="#DejaVuSans-20" transform="translate(940.4375 0)"/>
     <use xlink:href="#DejaVuSans-63" transform="translate(972.224609 0)"/>
     <use xlink:href="#DejaVuSans-6f" transform="translate(1027.205078 0)"/>
     <use xlink:href="#DejaVuSans-6e" transform="translate(1088.386719 0)"/>
     <use xlink:href="#DejaVuSans-74" transform="translate(1151.765625 0)"/>
     <use xlink:href="#DejaVuSans-72" transform="translate(1190.974609 0)"/>
     <use xlink:href="#DejaVuSans-6f" transform="translate(1229.837891 0)"/>
     <use xlink:href="#DejaVuSans-6c" transform="translate(1291.019531 0)"/>
     <use xlink:href="#DejaVuSans-20" transform="translate(1318.802734 0)"/>
     <use xlink:href="#DejaVuSans-77" transform="translate(1350.589844 0)"/>
     <use xlink:href="#DejaVuSans-69" transform="translate(1432.376953 0)"/>
     <use xlink:href="#DejaVuSans-74" transform="translate(1460.160156 0)"/>
     <use xlink:href="#DejaVuSans-68" transform="translate(1499.369141 0)"/>
     <use xlink:href="#DejaVuSans-20" transform="translate(1562.748047 0)"/>
     <use xlink:href="#DejaVuSans-68" transform="translate(1594.535156 0)"/>
     <use xlink:href="#DejaVuSans-61" transform="translate(1657.914062 0)"/>
     <use xlink:href="#DejaVuSans-72" transform="translate(1719.193359 0)"/>
     <use xlink:href="#DejaVuSans-64" transform="translate(1758.556641 0)"/>
     <use xlink:href="#DejaVuSans-77" transform="translate(1822.033203 0)"/>
     <use xlink:href="#DejaVuSans-61" transform="translate(1903.820312 0)"/>
     <use xlink:href="#DejaVuSans-72" transform="translate(1965.099609 0)"/>
     <use xlink:href="#DejaVuSans-65" transform="translate(2003.962891 0)"/>
     <use xlink:href="#DejaVuSans-20" transform="translate(2065.486328 0)"/>
     <use xlink:href="#DejaVuSans-5a" transform="translate(2097.273438 0)"/>
     <use xlink:href="#DejaVuSans-43" transform="translate(2165.779297 0)"/>
     <use xlink:href="#DejaVuSans-20" transform="translate(2235.603516 0)"/>
     <use xlink:href="#DejaVuSans-64" transform="translate(2267.390625 0)"/>
     <use xlink:href="#DejaVuSans-65" transform="translate(2330.867188 0)"/>
     <use xlink:href="#DejaVuSans-74" transform="translate(2392.390625 0)"/>
     <use xlink:href="#DejaVuSans-65" transform="translate(2431.599609 0)"/>
     <use xlink:href="#DejaVuSans-63" transform="translate(2493.123047 0)"/>
     <use xlink:href="#DejaVuSans-74" transform="translate(2548.103516 0)"/>
     <use xlink:href="#DejaVuSans-2e" transform="translate(2587.3125 0)"/>
    </g>
    <!-- ZMCT103C airflow interlock: RMS sensed on GPIO 34 (replaces DR-003 PWM&gt;0 check). -->
    <g transform="translate(375.677344 629.818594) scale(0.09 -0.09)">
     <defs>
      <path id="DejaVuSans-6b" d="M 581 4863 
L 1159 4863 
L 1159 1991 
L 2875 3500 
L 3609 3500 
L 1753 1863 
L 3688 0 
L 2938 0 
L 1159 1709 
L 1159 0 
L 581 0 
L 581 4863 
z
" transform="scale(0.015625)"/>
      <path id="DejaVuSans-3a" d="M 750 794 
L 1409 794 
L 1409 0 
L 750 0 
L 750 794 
z
M 750 3309 
L 1409 3309 
L 1409 2516 
L 750 2516 
L 750 3309 
z
" transform="scale(0.015625)"/>
     </defs>
     <use xlink:href="#DejaVuSans-5a"/>
     <use xlink:href="#DejaVuSans-4d" transform="translate(68.505859 0)"/>
     <use xlink:href="#DejaVuSans-43" transform="translate(154.785156 0)"/>
     <use xlink:href="#DejaVuSans-54" transform="translate(224.609375 0)"/>
     <use xlink:href="#DejaVuSans-31" transform="translate(285.693359 0)"/>
     <use xlink:href="#DejaVuSans-30" transform="translate(349.316406 0)"/>
     <use xlink:href="#DejaVuSans-33" transform="translate(412.939453 0)"/>
     <use xlink:href="#DejaVuSans-43" transform="translate(476.5625 0)"/>
     <use xlink:href="#DejaVuSans-20" transform="translate(546.386719 0)"/>
     <use xlink:href="#DejaVuSans-61" transform="translate(578.173828 0)"/>
     <use xlink:href="#DejaVuSans-69" transform="translate(639.453125 0)"/>
     <use xlink:href="#DejaVuSans-72" transform="translate(667.236328 0)"/>
     <use xlink:href="#DejaVuSans-66" transform="translate(708.349609 0)"/>
     <use xlink:href="#DejaVuSans-6c" transform="translate(743.554688 0)"/>
     <use xlink:href="#DejaVuSans-6f" transform="translate(771.337891 0)"/>
     <use xlink:href="#DejaVuSans-77" transform="translate(832.519531 0)"/>
     <use xlink:href="#DejaVuSans-20" transform="translate(914.306641 0)"/>
     <use xlink:href="#DejaVuSans-69" transform="translate(946.09375 0)"/>
     <use xlink:href="#DejaVuSans-6e" transform="translate(973.876953 0)"/>
     <use xlink:href="#DejaVuSans-74" transform="translate(1037.255859 0)"/>
     <use xlink:href="#DejaVuSans-65" transform="translate(1076.464844 0)"/>
     <use xlink:href="#DejaVuSans-72" transform="translate(1137.988281 0)"/>
     <use xlink:href="#DejaVuSans-6c" transform="translate(1179.101562 0)"/>
     <use xlink:href="#DejaVuSans-6f" transform="translate(1206.884766 0)"/>
     <use xlink:href="#DejaVuSans-63" transform="translate(1268.066406 0)"/>
     <use xlink:href="#DejaVuSans-6b" transform="translate(1323.046875 0)"/>
     <use xlink:href="#DejaVuSans-3a" transform="translate(1380.957031 0)"/>
     <use xlink:href="#DejaVuSans-20" transform="translate(1414.648438 0)"/>
     <use xlink:href="#DejaVuSans-52" transform="translate(1446.435547 0)"/>
     <use xlink:href="#DejaVuSans-4d" transform="translate(1515.917969 0)"/>
     <use xlink:href="#DejaVuSans-53" transform="translate(1602.197266 0)"/>
     <use xlink:href="#DejaVuSans-20" transform="translate(1665.673828 0)"/>
     <use xlink:href="#DejaVuSans-73" transform="translate(1697.460938 0)"/>
     <use xlink:href="#DejaVuSans-65" transform="translate(1749.560547 0)"/>
     <use xlink:href="#DejaVuSans-6e" transform="translate(1811.083984 0)"/>
     <use xlink:href="#DejaVuSans-73" transform="translate(1874.462891 0)"/>
     <use xlink:href="#DejaVuSans-65" transform="translate(1926.5625 0)"/>
     <use xlink:href="#DejaVuSans-64" transform="translate(1988.085938 0)"/>
     <use xlink:href="#DejaVuSans-20" transform="translate(2051.5625 0)"/>
     <use xlink:href="#DejaVuSans-6f" transform="translate(2083.349609 0)"/>
     <use xlink:href="#DejaVuSans-6e" transform="translate(2144.53125 0)"/>
     <use xlink:href="#DejaVuSans-20" transform="translate(2207.910156 0)"/>
     <use xlink:href="#DejaVuSans-47" transform="translate(2239.697266 0)"/>
     <use xlink:href="#DejaVuSans-50" transform="translate(2317.1875 0)"/>
     <use xlink:href="#DejaVuSans-49" transform="translate(2377.490234 0)"/>
     <use xlink:href="#DejaVuSans-4f" transform="translate(2406.982422 0)"/>
     <use xlink:href="#DejaVuSans-20" transform="translate(2485.693359 0)"/>
     <use xlink:href="#DejaVuSans-33" transform="translate(2517.480469 0)"/>
     <use xlink:href="#DejaVuSans-34" transform="translate(2581.103516 0)"/>
     <use xlink:href="#DejaVuSans-20" transform="translate(2644.726562 0)"/>
     <use xlink:href="#DejaVuSans-28" transform="translate(2676.513672 0)"/>
     <use xlink:href="#DejaVuSans-72" transform="translate(2715.527344 0)"/>
     <use xlink:href="#DejaVuSans-65" transform="translate(2754.390625 0)"/>
     <use xlink:href="#DejaVuSans-70" transform="translate(2815.914062 0)"/>
     <use xlink:href="#DejaVuSans-6c" transform="translate(2879.390625 0)"/>
     <use xlink:href="#DejaVuSans-61" transform="translate(2907.173828 0)"/>
     <use xlink:href="#DejaVuSans-63" transform="translate(2968.453125 0)"/>
     <use xlink:href="#DejaVuSans-65" transform="translate(3023.433594 0)"/>
     <use xlink:href="#DejaVuSans-73" transform="translate(3084.957031 0)"/>
     <use xlink:href="#DejaVuSans-20" transform="translate(3137.056641 0)"/>
     <use xlink:href="#DejaVuSans-44" transform="translate(3168.84375 0)"/>
     <use xlink:href="#DejaVuSans-52" transform="translate(3245.845703 0)"/>
     <use xlink:href="#DejaVuSans-2d" transform="translate(3311.328125 0)"/>
     <use xlink:href="#DejaVuSans-30" transform="translate(3347.412109 0)"/>
     <use xlink:href="#DejaVuSans-30" transform="translate(3411.035156 0)"/>
     <use xlink:href="#DejaVuSans-33" transform="translate(3474.658203 0)"/>
     <use xlink:href="#DejaVuSans-20" transform="translate(3538.28125 0)"/>
     <use xlink:href="#DejaVuSans-50" transform="translate(3570.068359 0)"/>
     <use xlink:href="#DejaVuSans-57" transform="translate(3630.371094 0)"/>
     <use xlink:href="#DejaVuSans-4d" transform="translate(3729.248047 0)"/>
     <use xlink:href="#DejaVuSans-3e" transform="translate(3815.527344 0)"/>
     <use xlink:href="#DejaVuSans-30" transform="translate(3899.316406 0)"/>
     <use xlink:href="#DejaVuSans-20" transform="translate(3962.939453 0)"/>
     <use xlink:href="#DejaVuSans-63" transform="translate(3994.726562 0)"/>
     <use xlink:href="#DejaVuSans-68" transform="translate(4049.707031 0)"/>
     <use xlink:href="#DejaVuSans-65" transform="translate(4113.085938 0)"/>
     <use xlink:href="#DejaVuSans-63" transform="translate(4174.609375 0)"/>
     <use xlink:href="#DejaVuSans-6b" transform="translate(4229.589844 0)"/>
     <use xlink:href="#DejaVuSans-29" transform="translate(4287.5 0)"/>
     <use xlink:href="#DejaVuSans-2e" transform="translate(4326.513672 0)"/>
    </g>
    <!-- FERR-001 ferrite chokes on motor leads + every TC SPI cable. FILT-001 mandatory for SPI integrity. -->
    <g transform="translate(349.715156 638.528906) scale(0.09 -0.09)">
     <use xlink:href="#DejaVuSans-46"/>
     <use xlink:href="#DejaVuSans-45" transform="translate(57.519531 0)"/>
     <use xlink:href="#DejaVuSans-52" transform="translate(120.703125 0)"/>
     <use xlink:href="#DejaVuSans-52" transform="translate(190.185547 0)"/>
     <use xlink:href="#DejaVuSans-2d" transform="translate(255.667969 0)"/>
     <use xlink:href="#DejaVuSans-30" transform="translate(291.751953 0)"/>
     <use xlink:href="#DejaVuSans-30" transform="translate(355.375 0)"/>
     <use xlink:href="#DejaVuSans-31" transform="translate(418.998047 0)"/>
     <use xlink:href="#DejaVuSans-20" transform="translate(482.621094 0)"/>
     <use xlink:href="#DejaVuSans-66" transform="translate(514.408203 0)"/>
     <use xlink:href="#DejaVuSans-65" transform="translate(549.613281 0)"/>
     <use xlink:href="#DejaVuSans-72" transform="translate(611.136719 0)"/>
     <use xlink:href="#DejaVuSans-72" transform="translate(650.5 0)"/>
     <use xlink:href="#DejaVuSans-69" transform="translate(691.613281 0)"/>
     <use xlink:href="#DejaVuSans-74" transform="translate(719.396484 0)"/>
     <use xlink:href="#DejaVuSans-65" transform="translate(758.605469 0)"/>
     <use xlink:href="#DejaVuSans-20" transform="translate(820.128906 0)"/>
     <use xlink:href="#DejaVuSans-63" transform="translate(851.916016 0)"/>
     <use xlink:href="#DejaVuSans-68" transform="translate(906.896484 0)"/>
     <use xlink:href="#DejaVuSans-6f" transform="translate(970.275391 0)"/>
     <use xlink:href="#DejaVuSans-6b" transform="translate(1031.457031 0)"/>
     <use xlink:href="#DejaVuSans-65" transform="translate(1085.742188 0)"/>
     <use xlink:href="#DejaVuSans-73" transform="translate(1147.265625 0)"/>
     <use xlink:href="#DejaVuSans-20" transform="translate(1199.365234 0)"/>
     <use xlink:href="#DejaVuSans-6f" transform="translate(1231.152344 0)"/>
     <use xlink:href="#DejaVuSans-6e" transform="translate(1292.333984 0)"/>
     <use xlink:href="#DejaVuSans-20" transform="translate(1355.712891 0)"/>
     <use xlink:href="#DejaVuSans-6d" transform="translate(1387.5 0)"/>
     <use xlink:href="#DejaVuSans-6f" transform="translate(1484.912109 0)"/>
     <use xlink:href="#DejaVuSans-74" transform="translate(1546.09375 0)"/>
     <use xlink:href="#DejaVuSans-6f" transform="translate(1585.302734 0)"/>
     <use xlink:href="#DejaVuSans-72" transform="translate(1646.484375 0)"/>
     <use xlink:href="#DejaVuSans-20" transform="translate(1687.597656 0)"/>
     <use xlink:href="#DejaVuSans-6c" transform="translate(1719.384766 0)"/>
     <use xlink:href="#DejaVuSans-65" transform="translate(1747.167969 0)"/>
     <use xlink:href="#DejaVuSans-61" transform="translate(1808.691406 0)"/>
     <use xlink:href="#DejaVuSans-64" transform="translate(1869.970703 0)"/>
     <use xlink:href="#DejaVuSans-73" transform="translate(1933.447266 0)"/>
     <use xlink:href="#DejaVuSans-20" transform="translate(1985.546875 0)"/>
     <use xlink:href="#DejaVuSans-2b" transform="translate(2017.333984 0)"/>
     <use xlink:href="#DejaVuSans-20" transform="translate(2101.123047 0)"/>
     <use xlink:href="#DejaVuSans-65" transform="translate(2132.910156 0)"/>
     <use xlink:href="#DejaVuSans-76" transform="translate(2194.433594 0)"/>
     <use xlink:href="#DejaVuSans-65" transform="translate(2253.613281 0)"/>
     <use xlink:href="#DejaVuSans-72" transform="translate(2315.136719 0)"/>
     <use xlink:href="#DejaVuSans-79" transform="translate(2356.25 0)"/>
     <use xlink:href="#DejaVuSans-20" transform="translate(2415.429688 0)"/>
     <use xlink:href="#DejaVuSans-54" transform="translate(2447.216797 0)"/>
     <use xlink:href="#DejaVuSans-43" transform="translate(2502.425781 0)"/>
     <use xlink:href="#DejaVuSans-20" transform="translate(2572.25 0)"/>
     <use xlink:href="#DejaVuSans-53" transform="translate(2604.037109 0)"/>
     <use xlink:href="#DejaVuSans-50" transform="translate(2667.513672 0)"/>
     <use xlink:href="#DejaVuSans-49" transform="translate(2727.816406 0)"/>
     <use xlink:href="#DejaVuSans-20" transform="translate(2757.308594 0)"/>
     <use xlink:href="#DejaVuSans-63" transform="translate(2789.095703 0)"/>
     <use xlink:href="#DejaVuSans-61" transform="translate(2844.076172 0)"/>
     <use xlink:href="#DejaVuSans-62" transform="translate(2905.355469 0)"/>
     <use xlink:href="#DejaVuSans-6c" transform="translate(2968.832031 0)"/>
     <use xlink:href="#DejaVuSans-65" transform="translate(2996.615234 0)"/>
     <use xlink:href="#DejaVuSans-2e" transform="translate(3058.138672 0)"/>
     <use xlink:href="#DejaVuSans-20" transform="translate(3089.925781 0)"/>
     <use xlink:href="#DejaVuSans-46" transform="translate(3121.712891 0)"/>
     <use xlink:href="#DejaVuSans-49" transform="translate(3179.232422 0)"/>
     <use xlink:href="#DejaVuSans-4c" transform="translate(3208.724609 0)"/>
     <use xlink:href="#DejaVuSans-54" transform="translate(3250.6875 0)"/>
     <use xlink:href="#DejaVuSans-2d" transform="translate(3302.646484 0)"/>
     <use xlink:href="#DejaVuSans-30" transform="translate(3338.730469 0)"/>
     <use xlink:href="#DejaVuSans-30" transform="translate(3402.353516 0)"/>
     <use xlink:href="#DejaVuSans-31" transform="translate(3465.976562 0)"/>
     <use xlink:href="#DejaVuSans-20" transform="translate(3529.599609 0)"/>
     <use xlink:href="#DejaVuSans-6d" transform="translate(3561.386719 0)"/>
     <use xlink:href="#DejaVuSans-61" transform="translate(3658.798828 0)"/>
     <use xlink:href="#DejaVuSans-6e" transform="translate(3720.078125 0)"/>
     <use xlink:href="#DejaVuSans-64" transform="translate(3783.457031 0)"/>
     <use xlink:href="#DejaVuSans-61" transform="translate(3846.933594 0)"/>
     <use xlink:href="#DejaVuSans-74" transform="translate(3908.212891 0)"/>
     <use xlink:href="#DejaVuSans-6f" transform="translate(3947.421875 0)"/>
     <use xlink:href="#DejaVuSans-72" transform="translate(4008.603516 0)"/>
     <use xlink:href="#DejaVuSans-79" transform="translate(4049.716797 0)"/>
     <use xlink:href="#DejaVuSans-20" transform="translate(4108.896484 0)"/>
     <use xlink:href="#DejaVuSans-66" transform="translate(4140.683594 0)"/>
     <use xlink:href="#DejaVuSans-6f" transform="translate(4175.888672 0)"/>
     <use xlink:href="#DejaVuSans-72" transform="translate(4237.070312 0)"/>
     <use xlink:href="#DejaVuSans-20" transform="translate(4278.183594 0)"/>
     <use xlink:href="#DejaVuSans-53" transform="translate(4309.970703 0)"/>
     <use xlink:href="#DejaVuSans-50" transform="translate(4373.447266 0)"/>
     <use xlink:href="#DejaVuSans-49" transform="translate(4433.75 0)"/>
     <use xlink:href="#DejaVuSans-20" transform="translate(4463.242188 0)"/>
     <use xlink:href="#DejaVuSans-69" transform="translate(4495.029297 0)"/>
     <use xlink:href="#DejaVuSans-6e" transform="translate(4522.8125 0)"/>
     <use xlink:href="#DejaVuSans-74" transform="translate(4586.191406 0)"/>
     <use xlink:href="#DejaVuSans-65" transform="translate(4625.400391 0)"/>
     <use xlink:href="#DejaVuSans-67" transform="translate(4686.923828 0)"/>
     <use xlink:href="#DejaVuSans-72" transform="translate(4750.400391 0)"/>
     <use xlink:href="#DejaVuSans-69" transform="translate(4791.513672 0)"/>
     <use xlink:href="#DejaVuSans-74" transform="translate(4819.296875 0)"/>
     <use xlink:href="#DejaVuSans-79" transform="translate(4858.505859 0)"/>
     <use xlink:href="#DejaVuSans-2e" transform="translate(4903.435547 0)"/>
    </g>
   </g>
   <g id="patch_3">
    <path d="M 35.4 82.08 
C 36.116048 82.08 36.802866 81.795511 37.309188 81.289188 
C 37.815511 80.782866 38.1 80.096048 38.1 79.38 
C 38.1 78.663952 37.815511 77.977134 37.309188 77.470812 
C 36.802866 76.964489 36.116048 76.68 35.4 76.68 
C 34.683952 76.68 33.997134 76.964489 33.490812 77.470812 
C 32.984489 77.977134 32.7 78.663952 32.7 79.38 
C 32.7 80.096048 32.984489 80.782866 33.490812 81.289188 
C 33.997134 81.795511 34.683952 82.08 35.4 82.08 
z
" clip-path="url(#p5409809c34)" style="stroke: #000000; stroke-width: 2; stroke-linejoin: miter"/>
   </g>
   <g id="text_11">
    <!-- L bus -->
    <g transform="translate(2.454687 82.139375) scale(0.1 -0.1)">
     <use xlink:href="#DejaVuSans-4c"/>
     <use xlink:href="#DejaVuSans-20" transform="translate(55.712891 0)"/>
     <use xlink:href="#DejaVuSans-62" transform="translate(87.5 0)"/>
     <use xlink:href="#DejaVuSans-75" transform="translate(150.976562 0)"/>
     <use xlink:href="#DejaVuSans-73" transform="translate(214.355469 0)"/>
    </g>
   </g>
   <g id="patch_4">
    <path d="M 314.4 118.08 
C 315.116048 118.08 315.802866 117.795511 316.309188 117.289188 
C 316.815511 116.782866 317.1 116.096048 317.1 115.38 
C 317.1 114.663952 316.815511 113.977134 316.309188 113.470812 
C 315.802866 112.964489 315.116048 112.68 314.4 112.68 
C 313.683952 112.68 312.997134 112.964489 312.490812 113.470812 
C 311.984489 113.977134 311.7 114.663952 311.7 115.38 
C 311.7 116.096048 311.984489 116.782866 312.490812 117.289188 
C 312.997134 117.795511 313.683952 118.08 314.4 118.08 
z
" clip-path="url(#p5409809c34)" style="stroke: #000000; stroke-width: 2; stroke-linejoin: miter"/>
   </g>
   <g id="patch_5">
    <path d="M 485.4 154.08 
C 486.116048 154.08 486.802866 153.795511 487.309188 153.289188 
C 487.815511 152.782866 488.1 152.096048 488.1 151.38 
C 488.1 150.663952 487.815511 149.977134 487.309188 149.470812 
C 486.802866 148.964489 486.116048 148.68 485.4 148.68 
C 484.683952 148.68 483.997134 148.964489 483.490812 149.470812 
C 482.984489 149.977134 482.7 150.663952 482.7 151.38 
C 482.7 152.096048 482.984489 152.782866 483.490812 153.289188 
C 483.997134 153.795511 484.683952 154.08 485.4 154.08 
z
" clip-path="url(#p5409809c34)" style="stroke: #000000; stroke-width: 2; stroke-linejoin: miter"/>
   </g>
   <g id="text_12">
    <!-- PWM in -->
    <g transform="translate(491.7 153.5875) scale(0.08 -0.08)">
     <use xlink:href="#DejaVuSans-50"/>
     <use xlink:href="#DejaVuSans-57" transform="translate(60.302734 0)"/>
     <use xlink:href="#DejaVuSans-4d" transform="translate(159.179688 0)"/>
     <use xlink:href="#DejaVuSans-20" transform="translate(245.458984 0)"/>
     <use xlink:href="#DejaVuSans-69" transform="translate(277.246094 0)"/>
     <use xlink:href="#DejaVuSans-6e" transform="translate(305.029297 0)"/>
    </g>
   </g>
   <g id="patch_6">
    <path d="M 593.4 154.08 
C 594.116048 154.08 594.802866 153.795511 595.309188 153.289188 
C 595.815511 152.782866 596.1 152.096048 596.1 151.38 
C 596.1 150.663952 595.815511 149.977134 595.309188 149.470812 
C 594.802866 148.964489 594.116048 148.68 593.4 148.68 
C 592.683952 148.68 591.997134 148.964489 591.490812 149.470812 
C 590.984489 149.977134 590.7 150.663952 590.7 151.38 
C 590.7 152.096048 590.984489 152.782866 591.490812 153.289188 
C 591.997134 153.795511 592.683952 154.08 593.4 154.08 
z
" clip-path="url(#p5409809c34)" style="stroke: #000000; stroke-width: 2; stroke-linejoin: miter"/>
   </g>
   <g id="text_13">
    <!-- ZC out -->
    <g transform="translate(599.7 153.5875) scale(0.08 -0.08)">
     <use xlink:href="#DejaVuSans-5a"/>
     <use xlink:href="#DejaVuSans-43" transform="translate(68.505859 0)"/>
     <use xlink:href="#DejaVuSans-20" transform="translate(138.330078 0)"/>
     <use xlink:href="#DejaVuSans-6f" transform="translate(170.117188 0)"/>
     <use xlink:href="#DejaVuSans-75" transform="translate(231.298828 0)"/>
     <use xlink:href="#DejaVuSans-74" transform="translate(294.677734 0)"/>
    </g>
   </g>
   <g id="patch_7">
    <path d="M 1115.4 82.08 
C 1116.116048 82.08 1116.802866 81.795511 1117.309188 81.289188 
C 1117.815511 80.782866 1118.1 80.096048 1118.1 79.38 
C 1118.1 78.663952 1117.815511 77.977134 1117.309188 77.470812 
C 1116.802866 76.964489 1116.116048 76.68 1115.4 76.68 
C 1114.683952 76.68 1113.997134 76.964489 1113.490812 77.470812 
C 1112.984489 77.977134 1112.7 78.663952 1112.7 79.38 
C 1112.7 80.096048 1112.984489 80.782866 1113.490812 81.289188 
C 1113.997134 81.795511 1114.683952 82.08 1115.4 82.08 
z
" clip-path="url(#p5409809c34)" style="stroke: #000000; stroke-width: 2; stroke-linejoin: miter"/>
   </g>
   <g id="text_14">
    <!-- N bus -->
    <g transform="translate(1121.7 82.139375) scale(0.1 -0.1)">
     <use xlink:href="#DejaVuSans-4e"/>
     <use xlink:href="#DejaVuSans-20" transform="translate(74.804688 0)"/>
     <use xlink:href="#DejaVuSans-62" transform="translate(106.591797 0)"/>
     <use xlink:href="#DejaVuSans-75" transform="translate(170.068359 0)"/>
     <use xlink:href="#DejaVuSans-73" transform="translate(233.447266 0)"/>
    </g>
   </g>
   <g id="patch_8">
    <path d="M 359.4 398.88 
C 360.116048 398.88 360.802866 398.595511 361.309188 398.089188 
C 361.815511 397.582866 362.1 396.896048 362.1 396.18 
C 362.1 395.463952 361.815511 394.777134 361.309188 394.270812 
C 360.802866 393.764489 360.116048 393.48 359.4 393.48 
C 358.683952 393.48 357.997134 393.764489 357.490812 394.270812 
C 356.984489 394.777134 356.7 395.463952 356.7 396.18 
C 356.7 396.896048 356.984489 397.582866 357.490812 398.089188 
C 357.997134 398.595511 358.683952 398.88 359.4 398.88 
z
" clip-path="url(#p5409809c34)" style="stroke: #000000; stroke-width: 2; stroke-linejoin: miter"/>
   </g>
   <g id="patch_9">
    <path d="M 359.4 442.08 
C 360.116048 442.08 360.802866 441.795511 361.309188 441.289188 
C 361.815511 440.782866 362.1 440.096048 362.1 439.38 
C 362.1 438.663952 361.815511 437.977134 361.309188 437.470812 
C 360.802866 436.964489 360.116048 436.68 359.4 436.68 
C 358.683952 436.68 357.997134 436.964489 357.490812 437.470812 
C 356.984489 437.977134 356.7 438.663952 356.7 439.38 
C 356.7 440.096048 356.984489 440.782866 357.490812 441.289188 
C 357.997134 441.795511 358.683952 442.08 359.4 442.08 
z
" clip-path="url(#p5409809c34)" style="stroke: #000000; stroke-width: 2; stroke-linejoin: miter"/>
   </g>
   <g id="patch_10">
    <path d="M 359.4 485.28 
C 360.116048 485.28 360.802866 484.995511 361.309188 484.489188 
C 361.815511 483.982866 362.1 483.296048 362.1 482.58 
C 362.1 481.863952 361.815511 481.177134 361.309188 480.670812 
C 360.802866 480.164489 360.116048 479.88 359.4 479.88 
C 358.683952 479.88 357.997134 480.164489 357.490812 480.670812 
C 356.984489 481.177134 356.7 481.863952 356.7 482.58 
C 356.7 483.296048 356.984489 483.982866 357.490812 484.489188 
C 357.997134 484.995511 358.683952 485.28 359.4 485.28 
z
" clip-path="url(#p5409809c34)" style="stroke: #000000; stroke-width: 2; stroke-linejoin: miter"/>
   </g>
   <g id="patch_11">
    <path d="M 314.4 226.08 
C 315.116048 226.08 315.802866 225.795511 316.309188 225.289188 
C 316.815511 224.782866 317.1 224.096048 317.1 223.38 
C 317.1 222.663952 316.815511 221.977134 316.309188 221.470812 
C 315.802866 220.964489 315.116048 220.68 314.4 220.68 
C 313.683952 220.68 312.997134 220.964489 312.490812 221.470812 
C 311.984489 221.977134 311.7 222.663952 311.7 223.38 
C 311.7 224.096048 311.984489 224.782866 312.490812 225.289188 
C 312.997134 225.795511 313.683952 226.08 314.4 226.08 
z
" clip-path="url(#p5409809c34)" style="stroke: #000000; stroke-width: 2; stroke-linejoin: miter"/>
   </g>
  </g>
 </g>
 <defs>
  <clipPath id="p5409809c34">
   <rect x="0" y="0" width="1151.82" height="645.66"/>
  </clipPath>
 </defs>
</svg>
