<svg xmlns="http://www.w3.org/2000/svg" xmlns:xlink="http://www.w3.org/1999/xlink" xml:lang="en" height="645.5pt" width="1151.66pt" viewBox="-35.32 -79.30000000000001 1151.66 645.5"><path d="M 72.0,36.0 L 72.0,-36.0 L 180.0,-36.0 L 180.0,36.0 L 72.0,36.0" style="stroke:black;fill:none;stroke-width:2.0;stroke-dasharray:-;stroke-linecap:round;stroke-linejoin:round;" /><path d="M 234.0,36.0 L 234.0,-36.0 L 324.0,-36.0 L 324.0,36.0 L 234.0,36.0" style="stroke:black;fill:none;stroke-width:2.0;stroke-dasharray:-;stroke-linecap:round;stroke-linejoin:round;" /><path d="M 396.0,72.0 L 396.0,-72.0 L 612.0,-72.0 L 612.0,72.0 L 396.0,72.0" style="stroke:black;fill:none;stroke-width:2.0;stroke-dasharray:-;stroke-linecap:round;stroke-linejoin:round;" /><path d="M 180.0,432.0 L 180.0,288.0 L 324.0,288.0 L 324.0,432.0 L 180.0,432.0" style="stroke:black;fill:none;stroke-width:2.0;stroke-dasharray:-;stroke-linecap:round;stroke-linejoin:round;" /><circle cx="729.0" cy="-0.0" r="18.0" style="stroke:black;fill:none;stroke-width:2.0;stroke-dasharray:-;" /><path d="M 0.0,-0.0 L 36.0,-0.0 L 72.0,-0.0" style="stroke:#c8262a;fill:none;stroke-width:2.0;stroke-dasharray:-;stroke-linecap:round;stroke-linejoin:round;" /><path d="M 72.0,-0.0 L 126.0,-0.0 L 180.0,-0.0" style="stroke:#c8262a;fill:none;stroke-width:2.0;stroke-dasharray:-;stroke-linecap:round;stroke-linejoin:round;" /><path d="M 180.0,-0.0 L 207.0,-0.0 L 234.0,-0.0" style="stroke:#c8262a;fill:none;stroke-width:2.0;stroke-dasharray:-;stroke-linecap:round;stroke-linejoin:round;" /><path d="M 234.0,-0.0 L 279.0,-0.0 L 324.0,-0.0" style="stroke:#c8262a;fill:none;stroke-width:2.0;stroke-dasharray:-;stroke-linecap:round;stroke-linejoin:round;" /><path d="M 279.0,36.0 L 279.0,72.0 L 279.0,108.0" style="stroke:black;fill:none;stroke-width:2.0;stroke-dasharray:-;stroke-linecap:round;stroke-linejoin:round;" /><path d="M 324.0,-0.0 L 360.0,-0.0 L 396.0,-0.0" style="stroke:#c8262a;fill:none;stroke-width:2.0;stroke-dasharray:-;stroke-linecap:round;stroke-linejoin:round;" /><path d="M 396.0,-0.0 L 504.0,-0.0 L 612.0,-0.0" style="stroke:#c8262a;fill:none;stroke-width:2.0;stroke-dasharray:-;stroke-linecap:round;stroke-linejoin:round;" /><path d="M 612.0,-0.0 L 648.0,-0.0 L 684.0,-0.0" style="stroke:#c8262a;fill:none;stroke-width:2.0;stroke-dasharray:-;stroke-linecap:round;stroke-linejoin:round;" /><path d="M 684.0,-0.0 L 703.08,-0.0 L 703.08,-0.0 M 754.92,-0.0 L 754.92,-0.0 L 774.0,-0.0" style="stroke:black;fill:none;stroke-width:2.0;stroke-dasharray:-;stroke-linecap:round;stroke-linejoin:round;" /><path d="M 711.0,7.92 L 703.08,7.92 L 703.08,-7.92 L 711.0,-7.92" style="stroke:black;fill:none;stroke-width:2.0;stroke-dasharray:-;stroke-linecap:round;stroke-linejoin:round;" /><path d="M 747.0,7.92 L 754.92,7.92 L 754.92,-7.92 L 747.0,-7.92" style="stroke:black;fill:none;stroke-width:2.0;stroke-dasharray:-;stroke-linecap:round;stroke-linejoin:round;" /><path d="M 774.0,-0.0 L 927.0,-0.0 L 1080.0,-0.0" style="stroke:#404040;fill:none;stroke-width:2.0;stroke-dasharray:-;stroke-linecap:round;stroke-linejoin:round;" /><path d="M 729.0,54.0 L 729.0,99.0 L 729.0,144.0" style="stroke:#1f9d3a;fill:none;stroke-width:2.0;stroke-dasharray:-;stroke-linecap:round;stroke-linejoin:round;" /><path d="M 729.0,144.0 L 729.0,158.4 L 720.0,158.4 L 738.0,158.4 M 722.6999999999999,162.71999999999997 L 735.3000000000001,162.71999999999997 M 727.1999999999999,167.04 L 730.8000000000001,167.04" style="stroke:#1f9d3a;fill:none;stroke-width:2.0;stroke-dasharray:-;stroke-linecap:round;stroke-linejoin:round;" /><path d="M 324.0,316.8 L 360.0,316.8 L 396.0,316.8" style="stroke:#7b3fbf;fill:none;stroke-width:2.0;stroke-dasharray:-;stroke-linecap:round;stroke-linejoin:round;" /><path d="M 396.0,316.8 L 396.0,194.418 L 396.0,72.03599999999997" style="stroke:#7b3fbf;fill:none;stroke-width:2.0;stroke-dasharray:-;stroke-linecap:round;stroke-linejoin:round;" /><path d="M 396.0,316.8 L 423.0,316.8 L 450.0,316.8" style="stroke:#7b3fbf;fill:none;stroke-width:2.0;stroke-dasharray:-;stroke-linecap:round;stroke-linejoin:round;" /><path d="M 450.0,316.8 L 450.0,194.4 L 450.0,72.0" style="stroke:#7b3fbf;fill:none;stroke-width:2.0;stroke-dasharray:-;stroke-linecap:round;stroke-linejoin:round;" /><path d="M 558.0,72.0 L 558.0,216.0 L 558.0,360.0" style="stroke:#7b3fbf;fill:none;stroke-width:2.0;stroke-dasharray:-;stroke-linecap:round;stroke-linejoin:round;" /><path d="M 558.0,360.0 L 441.0,360.0 L 324.0,360.0" style="stroke:#7b3fbf;fill:none;stroke-width:2.0;stroke-dasharray:-;stroke-linecap:round;stroke-linejoin:round;" /><path d="M 279.0,108.0 L 279.0,126.0 L 288.0,129.0 L 270.0,135.0 L 288.0,141.0 L 270.0,147.0 L 288.0,153.0 L 270.0,158.99999999999997 L 279.0,162.0 L 279.0,180.0" style="stroke:black;fill:none;stroke-width:2.0;stroke-dasharray:-;stroke-linecap:round;stroke-linejoin:round;" /><path d="M 279.0,180.0 L 279.0,194.4 L 279.0,208.79999999999998" style="stroke:black;fill:none;stroke-width:2.0;stroke-dasharray:-;stroke-linecap:round;stroke-linejoin:round;" /><path d="M 279.0,208.79999999999998 L 279.0,223.20000000000002 L 270.0,223.20000000000002 L 288.0,223.20000000000002 M 272.7,227.52 L 285.3,227.52 M 277.2,231.83999999999997 L 280.8,231.83999999999997" style="stroke:black;fill:none;stroke-width:2.0;stroke-dasharray:-;stroke-linecap:round;stroke-linejoin:round;" /><path d="M 279.0,144.0 L 373.5,144.0 L 468.0,144.0" style="stroke:#7b3fbf;fill:none;stroke-width:2.0;stroke-dasharray:-;stroke-linecap:round;stroke-linejoin:round;" /><path d="M 468.0,144.0 L 468.0,273.59999999999997 L 468.0,403.2" style="stroke:#7b3fbf;fill:none;stroke-width:2.0;stroke-dasharray:-;stroke-linecap:round;stroke-linejoin:round;" /><path d="M 468.0,403.2 L 396.0,403.2 L 324.0,403.2" style="stroke:#7b3fbf;fill:none;stroke-width:2.0;stroke-dasharray:-;stroke-linecap:round;stroke-linejoin:round;" /><text x="129.6" y="-79.2" dominant-baseline="central" fill="black" font-size="9" font-family="sans" text-anchor="middle"><tspan x="129.6" dy="9">FILT-001</tspan><tspan x="129.6" dy="9">AC line filter</tspan><tspan x="129.6" dy="9">(X + Y caps)</tspan></text><text x="282.59999999999997" y="-79.2" dominant-baseline="central" fill="black" font-size="9" font-family="sans" text-anchor="middle"><tspan x="282.59999999999997" dy="9">CT-001</tspan><tspan x="282.59999999999997" dy="9">ZMCT103C 5A</tspan><tspan x="282.59999999999997" dy="9">(split-core)</tspan></text><text x="507.59999999999997" y="-67.5" dominant-baseline="central" fill="black" font-size="9" font-family="sans" text-anchor="middle"><tspan x="507.59999999999997" dy="9">BLW-CTRL-001</tspan><tspan x="507.59999999999997" dy="9">TRIAC Dimmer  (RobotDyn-style 8 A)</tspan></text><text x="651.6" y="-40.8" dominant-baseline="central" fill="#888888" font-size="8" font-family="sans" text-anchor="middle"><tspan x="651.6" dy="8">FERR-001</tspan><tspan x="651.6" dy="8">(snap-on)</tspan></text><text x="729.0" y="-61.599999999999994" dominant-baseline="ideographic" fill="black" font-size="10" font-family="sans" text-anchor="middle"><tspan x="729.0" dy="10">BLW-001</tspan><tspan x="729.0" dy="10">Universal AC</tspan><tspan x="729.0" dy="10">bypass-cooled</tspan><tspan x="729.0" dy="10">vacuum motor</tspan></text><text x="815.4000000000001" y="99.60000000000001" dominant-baseline="central" fill="#1f9d3a" font-size="8" font-family="sans" text-anchor="middle"><tspan x="815.4000000000001" dy="8">BOND-001</tspan><tspan x="815.4000000000001" dy="8">frame -&gt; chassis earth</tspan></text><text x="255.6" y="341.09999999999997" dominant-baseline="central" fill="black" font-size="9" font-family="sans" text-anchor="middle"><tspan x="255.6" dy="9">ESP32</tspan><tspan x="255.6" dy="9">GPIO 23 (PWM)</tspan><tspan x="255.6" dy="9">GPIO  4 (ZC IRQ)</tspan><tspan x="255.6" dy="9">GPIO 34 (ADC)</tspan></text><text x="266.40000000000003" y="129.0" dominant-baseline="central" fill="black" font-size="10" font-family="sans" text-anchor="end"><tspan x="266.40000000000003" dy="10">R-BURDEN</tspan><tspan x="266.40000000000003" dy="10">62 ohm</tspan></text><text x="518.4" y="114.0" dominant-baseline="central" fill="black" font-size="8" font-family="sans" text-anchor="middle"><tspan x="518.4" dy="8">(burden + bias</tspan><tspan x="518.4" dy="8"> to ADC mid-rail)</tspan></text><text x="536.4" y="521.1" dominant-baseline="central" fill="black" font-size="9" font-family="sans" text-anchor="middle"><tspan x="536.4" dy="9">Domain 2 - Blower Circuit (120 V AC, DR-011)</tspan><tspan x="536.4" dy="9">Phase-angle TRIAC control with hardware ZC detect.</tspan><tspan x="536.4" dy="9">ZMCT103C airflow interlock: RMS sensed on GPIO 34 (replaces DR-003 PWM&gt;0 check).</tspan><tspan x="536.4" dy="9">FERR-001 ferrite chokes on motor leads + every TC SPI cable. FILT-001 mandatory for SPI integrity.</tspan></text><circle cx="0.0" cy="-0.0" r="2.6999999999999997" style="stroke:black;fill:black;stroke-width:2.0;stroke-dasharray:-;" /><text x="-6.3" y="-10.0" dominant-baseline="central" fill="black" font-size="10" font-family="sans" text-anchor="end"><tspan x="-6.3" dy="10">L bus</tspan></text><circle cx="279.0" cy="36.0" r="2.6999999999999997" style="stroke:black;fill:black;stroke-width:2.0;stroke-dasharray:-;" /><circle cx="450.0" cy="72.0" r="2.6999999999999997" style="stroke:black;fill:black;stroke-width:2.0;stroke-dasharray:-;" /><text x="456.3" y="64.0" dominant-baseline="central" fill="black" font-size="8" font-family="sans" text-anchor="start"><tspan x="456.3" dy="8">PWM in</tspan></text><circle cx="558.0" cy="72.0" r="2.6999999999999997" style="stroke:black;fill:black;stroke-width:2.0;stroke-dasharray:-;" /><text x="564.3000000000001" y="64.0" dominant-baseline="central" fill="black" font-size="8" font-family="sans" text-anchor="start"><tspan x="564.3000000000001" dy="8">ZC out</tspan></text><circle cx="1080.0" cy="-0.0" r="2.6999999999999997" style="stroke:black;fill:black;stroke-width:2.0;stroke-dasharray:-;" /><text x="1086.3" y="-10.0" dominant-baseline="central" fill="black" font-size="10" font-family="sans" text-anchor="start"><tspan x="1086.3" dy="10">N bus</tspan></text><circle cx="324.0" cy="316.8" r="2.6999999999999997" style="stroke:black;fill:black;stroke-width:2.0;stroke-dasharray:-;" /><circle cx="324.0" cy="360.0" r="2.6999999999999997" style="stroke:black;fill:black;stroke-width:2.0;stroke-dasharray:-;" /><circle cx="324.0" cy="403.2" r="2.6999999999999997" style="stroke:black;fill:black;stroke-width:2.0;stroke-dasharray:-;" /><circle cx="279.0" cy="144.0" r="2.6999999999999997" style="stroke:black;fill:black;stroke-width:2.0;stroke-dasharray:-;" /></svg>